<svg xmlns="http://www.w3.org/2000/svg" version="1.1" xmlns:xlink="http://www.w3.org/1999/xlink" xmlns:svgjs="http://svgjs.com/svgjs" width="550" height="800" preserveAspectRatio="none" viewBox="0 0 550 800"><g mask="url(&quot;#SvgjsMask5904&quot;)" fill="none"><rect width="550" height="800" x="0" y="0" fill="url(#SvgjsLinearGradient5905)"></rect><rect width="289.52" height="289.52" clip-path="url(&quot;#SvgjsClipPath5906&quot;)" x="362.3" y="367.58" fill="url(#SvgjsPattern5907)" transform="rotate(202.45, 507.06, 512.34)"></rect><circle r="78.79048619508397" cx="75.08" cy="657.43" fill="rgba(186, 47, 255, 1)"></circle><path d="M143.15 13.39L152.9 5.09 163.14 12.79 172.9 4.49 183.13 12.18 192.89 3.88 203.12 11.58M143.39 21.39L153.15 13.09 163.38 20.78 173.14 12.48 183.37 20.18 193.13 11.88 203.36 19.57M143.63 29.38L153.39 21.08 163.62 28.78 173.38 20.48 183.61 28.17 193.37 19.88 203.61 27.57" stroke="rgba(102, 208, 255, 1)" stroke-width="1" stroke-dasharray="4, 4"></path><path d="M247.26 280.9 L189.92000000000002 328.04999999999995L175.83666949168673 261.7216694916867z" stroke="rgba(102, 208, 255, 1)" stroke-width="1.9" stroke-dasharray="3, 3"></path><path d="M377.73 124.32a5.6 5.6 0 1 0 10.6-3.63 5.6 5.6 0 1 0-10.6 3.63zM392.87 119.13a5.6 5.6 0 1 0 10.59-3.64 5.6 5.6 0 1 0-10.59 3.64zM408 113.94a5.6 5.6 0 1 0 10.59-3.64 5.6 5.6 0 1 0-10.59 3.64zM423.13 108.74a5.6 5.6 0 1 0 10.6-3.63 5.6 5.6 0 1 0-10.6 3.63z" fill="rgba(228, 53, 130, 1)"></path><path d="M103.25 443.27L108.66 431.66 121.17 434.38 126.57 422.77 139.09 425.49 144.49 413.88 157 416.6" stroke="rgba(102, 208, 255, 1)" stroke-width="1.64" stroke-dasharray="4, 4"></path><rect width="336" height="336" clip-path="url(&quot;#SvgjsClipPath5908&quot;)" x="-30.9" y="263.6" fill="url(#SvgjsPattern5909)" transform="rotate(110.19, 137.1, 431.6)"></rect></g><defs><mask id="SvgjsMask5904"><rect width="550" height="800" fill="#ffffff"></rect></mask><linearGradient x1="-11.36%" y1="7.81%" x2="111.36%" y2="92.19%" gradientUnits="userSpaceOnUse" id="SvgjsLinearGradient5905"><stop stop-color="rgba(181, 58, 168, 0.49)" offset="0.96"></stop><stop stop-color="rgba(103, 208, 218, 0.21)" offset="0.97"></stop><stop stop-color="rgba(103, 208, 218, 0.21)" offset="1"></stop></linearGradient><pattern x="0" y="0" width="289.52" height="13.16" patternUnits="userSpaceOnUse" id="SvgjsPattern5907"><rect width="289.52" height="6.58" x="0" y="0" fill="rgba(228, 53, 130, 1)"></rect><rect width="289.52" height="6.58" x="0" y="6.58" fill="rgba(0, 0, 0, 0)"></rect></pattern><clipPath id="SvgjsClipPath5906"><circle r="72.38" cx="507.06" cy="512.34"></circle></clipPath><pattern x="0" y="0" width="6" height="6" patternUnits="userSpaceOnUse" id="SvgjsPattern5909"><path d="M3 1L3 5M1 3L5 3" stroke="rgba(102, 208, 255, 1)" fill="none" stroke-width="1.76"></path></pattern><clipPath id="SvgjsClipPath5908"><circle r="84" cx="137.1" cy="431.6"></circle></clipPath></defs></svg>