<svg xmlns="http://www.w3.org/2000/svg" version="1.1" xmlns:xlink="http://www.w3.org/1999/xlink" xmlns:svgjs="http://svgjs.com/svgjs" width="1440" height="560" preserveAspectRatio="none" viewBox="0 0 1440 560"><g mask="url(&quot;#SvgjsMask1776&quot;)" fill="none"><path d="M-77.27 367.51L-77.27 367.51" stroke="rgba(229, 94, 233, 1)" stroke-width="1.5"></path><path d="M-77.27 367.51L-45.93 496.45" stroke="rgba(229, 94, 233, 1)" stroke-width="1.5"></path><path d="M-77.27 367.51L69.17 364.69" stroke="rgba(229, 94, 233, 1)" stroke-width="1.5"></path><path d="M-77.27 367.51L66.47 542.47" stroke="rgba(229, 94, 233, 1)" stroke-width="1.5"></path><path d="M-77.27 367.51L-77.59 655.83" stroke="rgba(229, 94, 233, 1)" stroke-width="1.5"></path><path d="M-77.27 367.51L253.24 407.98" stroke="rgba(229, 94, 233, 1)" stroke-width="1.5"></path><path d="M-45.93 496.45L-45.93 496.45" stroke="rgba(229, 94, 233, 1)" stroke-width="1.5"></path><path d="M-45.93 496.45L66.47 542.47" stroke="rgba(229, 94, 233, 1)" stroke-width="1.5"></path><path d="M-45.93 496.45L-77.59 655.83" stroke="rgba(229, 94, 233, 1)" stroke-width="1.5"></path><path d="M-77.59 655.83L-77.59 655.83" stroke="rgba(229, 94, 233, 1)" stroke-width="1.5"></path><path d="M-77.59 655.83L69.03 666.79" stroke="rgba(229, 94, 233, 1)" stroke-width="1.5"></path><path d="M-77.59 655.83L66.47 542.47" stroke="rgba(229, 94, 233, 1)" stroke-width="1.5"></path><path d="M-77.59 655.83L69.17 364.69" stroke="rgba(229, 94, 233, 1)" stroke-width="1.5"></path><path d="M-77.59 655.83L249.89 709.21" stroke="rgba(229, 94, 233, 1)" stroke-width="1.5"></path><path d="M69.17 364.69L69.17 364.69" stroke="rgba(229, 94, 233, 1)" stroke-width="1.5"></path><path d="M69.17 364.69L-45.93 496.45" stroke="rgba(229, 94, 233, 1)" stroke-width="1.5"></path><path d="M66.47 542.47L66.47 542.47" stroke="rgba(229, 94, 233, 1)" stroke-width="1.5"></path><path d="M69.03 666.79L69.03 666.79" stroke="rgba(229, 94, 233, 1)" stroke-width="1.5"></path><path d="M69.03 666.79L66.47 542.47" stroke="rgba(229, 94, 233, 1)" stroke-width="1.5"></path><path d="M253.24 407.98L253.24 407.98" stroke="rgba(229, 94, 233, 1)" stroke-width="1.5"></path><path d="M253.24 407.98L389.19 395.23" stroke="rgba(229, 94, 233, 1)" stroke-width="1.5"></path><path d="M253.24 407.98L379.91 498.57" stroke="rgba(229, 94, 233, 1)" stroke-width="1.5"></path><path d="M249.89 709.21L249.89 709.21" stroke="rgba(229, 94, 233, 1)" stroke-width="1.5"></path><path d="M249.89 709.21L69.03 666.79" stroke="rgba(229, 94, 233, 1)" stroke-width="1.5"></path><path d="M249.89 709.21L379.91 498.57" stroke="rgba(229, 94, 233, 1)" stroke-width="1.5"></path><path d="M249.89 709.21L66.47 542.47" stroke="rgba(229, 94, 233, 1)" stroke-width="1.5"></path><path d="M249.89 709.21L253.24 407.98" stroke="rgba(229, 94, 233, 1)" stroke-width="1.5"></path><path d="M249.89 709.21L389.19 395.23" stroke="rgba(229, 94, 233, 1)" stroke-width="1.5"></path><path d="M389.19 395.23L389.19 395.23" stroke="rgba(229, 94, 233, 1)" stroke-width="1.5"></path><path d="M389.19 395.23L379.91 498.57" stroke="rgba(229, 94, 233, 1)" stroke-width="1.5"></path><path d="M389.19 395.23L548.64 360.98" stroke="rgba(229, 94, 233, 1)" stroke-width="1.5"></path><path d="M389.19 395.23L692.81 376.07" stroke="rgba(229, 94, 233, 1)" stroke-width="1.5"></path><path d="M379.91 498.57L379.91 498.57" stroke="rgba(229, 94, 233, 1)" stroke-width="1.5"></path><path d="M379.91 498.57L548.64 360.98" stroke="rgba(229, 94, 233, 1)" stroke-width="1.5"></path><path d="M379.91 498.57L689.59 549.8" stroke="rgba(229, 94, 233, 1)" stroke-width="1.5"></path><path d="M379.91 498.57L66.47 542.47" stroke="rgba(229, 94, 233, 1)" stroke-width="1.5"></path><path d="M548.64 360.98L548.64 360.98" stroke="rgba(229, 94, 233, 1)" stroke-width="1.5"></path><path d="M548.64 360.98L692.81 376.07" stroke="rgba(229, 94, 233, 1)" stroke-width="1.5"></path><path d="M662.17 221.33L662.17 221.33" stroke="rgba(229, 94, 233, 1)" stroke-width="1.5"></path><path d="M662.17 221.33L692.81 376.07" stroke="rgba(229, 94, 233, 1)" stroke-width="1.5"></path><path d="M662.17 221.33L828.13 230.9" stroke="rgba(229, 94, 233, 1)" stroke-width="1.5"></path><path d="M662.17 221.33L548.64 360.98" stroke="rgba(229, 94, 233, 1)" stroke-width="1.5"></path><path d="M662.17 221.33L842.61 352.16" stroke="rgba(229, 94, 233, 1)" stroke-width="1.5"></path><path d="M692.81 376.07L692.81 376.07" stroke="rgba(229, 94, 233, 1)" stroke-width="1.5"></path><path d="M692.81 376.07L842.61 352.16" stroke="rgba(229, 94, 233, 1)" stroke-width="1.5"></path><path d="M689.59 549.8L689.59 549.8" stroke="rgba(229, 94, 233, 1)" stroke-width="1.5"></path><path d="M689.59 549.8L658.38 674.43" stroke="rgba(229, 94, 233, 1)" stroke-width="1.5"></path><path d="M689.59 549.8L831.01 496.26" stroke="rgba(229, 94, 233, 1)" stroke-width="1.5"></path><path d="M689.59 549.8L797.03 675.46" stroke="rgba(229, 94, 233, 1)" stroke-width="1.5"></path><path d="M689.59 549.8L692.81 376.07" stroke="rgba(229, 94, 233, 1)" stroke-width="1.5"></path><path d="M689.59 549.8L548.64 360.98" stroke="rgba(229, 94, 233, 1)" stroke-width="1.5"></path><path d="M689.59 549.8L842.61 352.16" stroke="rgba(229, 94, 233, 1)" stroke-width="1.5"></path><path d="M658.38 674.43L658.38 674.43" stroke="rgba(229, 94, 233, 1)" stroke-width="1.5"></path><path d="M658.38 674.43L797.03 675.46" stroke="rgba(229, 94, 233, 1)" stroke-width="1.5"></path><path d="M828.13 230.9L828.13 230.9" stroke="rgba(229, 94, 233, 1)" stroke-width="1.5"></path><path d="M828.13 230.9L842.61 352.16" stroke="rgba(229, 94, 233, 1)" stroke-width="1.5"></path><path d="M828.13 230.9L965.48 221.82" stroke="rgba(229, 94, 233, 1)" stroke-width="1.5"></path><path d="M828.13 230.9L946.02 108.92" stroke="rgba(229, 94, 233, 1)" stroke-width="1.5"></path><path d="M828.13 230.9L692.81 376.07" stroke="rgba(229, 94, 233, 1)" stroke-width="1.5"></path><path d="M842.61 352.16L842.61 352.16" stroke="rgba(229, 94, 233, 1)" stroke-width="1.5"></path><path d="M842.61 352.16L971.66 388.27" stroke="rgba(229, 94, 233, 1)" stroke-width="1.5"></path><path d="M842.61 352.16L831.01 496.26" stroke="rgba(229, 94, 233, 1)" stroke-width="1.5"></path><path d="M842.61 352.16L965.48 221.82" stroke="rgba(229, 94, 233, 1)" stroke-width="1.5"></path><path d="M831.01 496.26L831.01 496.26" stroke="rgba(229, 94, 233, 1)" stroke-width="1.5"></path><path d="M831.01 496.26L971.66 388.27" stroke="rgba(229, 94, 233, 1)" stroke-width="1.5"></path><path d="M831.01 496.26L1007.57 524.98" stroke="rgba(229, 94, 233, 1)" stroke-width="1.5"></path><path d="M831.01 496.26L797.03 675.46" stroke="rgba(229, 94, 233, 1)" stroke-width="1.5"></path><path d="M831.01 496.26L692.81 376.07" stroke="rgba(229, 94, 233, 1)" stroke-width="1.5"></path><path d="M797.03 675.46L797.03 675.46" stroke="rgba(229, 94, 233, 1)" stroke-width="1.5"></path><path d="M797.03 675.46L975.31 698.49" stroke="rgba(229, 94, 233, 1)" stroke-width="1.5"></path><path d="M946.02 108.92L946.02 108.92" stroke="rgba(229, 94, 233, 1)" stroke-width="1.5"></path><path d="M946.02 108.92L965.48 221.82" stroke="rgba(229, 94, 233, 1)" stroke-width="1.5"></path><path d="M946.02 108.92L1090.61 87.69" stroke="rgba(229, 94, 233, 1)" stroke-width="1.5"></path><path d="M965.48 221.82L965.48 221.82" stroke="rgba(229, 94, 233, 1)" stroke-width="1.5"></path><path d="M965.48 221.82L1093.09 206.71" stroke="rgba(229, 94, 233, 1)" stroke-width="1.5"></path><path d="M965.48 221.82L971.66 388.27" stroke="rgba(229, 94, 233, 1)" stroke-width="1.5"></path><path d="M971.66 388.27L971.66 388.27" stroke="rgba(229, 94, 233, 1)" stroke-width="1.5"></path><path d="M971.66 388.27L1096.01 405.22" stroke="rgba(229, 94, 233, 1)" stroke-width="1.5"></path><path d="M971.66 388.27L1007.57 524.98" stroke="rgba(229, 94, 233, 1)" stroke-width="1.5"></path><path d="M1007.57 524.98L1007.57 524.98" stroke="rgba(229, 94, 233, 1)" stroke-width="1.5"></path><path d="M1007.57 524.98L1109.26 552.36" stroke="rgba(229, 94, 233, 1)" stroke-width="1.5"></path><path d="M1007.57 524.98L1096.01 405.22" stroke="rgba(229, 94, 233, 1)" stroke-width="1.5"></path><path d="M1007.57 524.98L975.31 698.49" stroke="rgba(229, 94, 233, 1)" stroke-width="1.5"></path><path d="M1007.57 524.98L1149.18 685.66" stroke="rgba(229, 94, 233, 1)" stroke-width="1.5"></path><path d="M975.31 698.49L975.31 698.49" stroke="rgba(229, 94, 233, 1)" stroke-width="1.5"></path><path d="M975.31 698.49L1149.18 685.66" stroke="rgba(229, 94, 233, 1)" stroke-width="1.5"></path><path d="M975.31 698.49L1109.26 552.36" stroke="rgba(229, 94, 233, 1)" stroke-width="1.5"></path><path d="M1090.61 87.69L1090.61 87.69" stroke="rgba(229, 94, 233, 1)" stroke-width="1.5"></path><path d="M1090.61 87.69L1093.09 206.71" stroke="rgba(229, 94, 233, 1)" stroke-width="1.5"></path><path d="M1090.61 87.69L965.48 221.82" stroke="rgba(229, 94, 233, 1)" stroke-width="1.5"></path><path d="M1090.61 87.69L1287.2 42.83" stroke="rgba(229, 94, 233, 1)" stroke-width="1.5"></path><path d="M1090.61 87.69L1262.14 -60.75" stroke="rgba(229, 94, 233, 1)" stroke-width="1.5"></path><path d="M1093.09 206.71L1093.09 206.71" stroke="rgba(229, 94, 233, 1)" stroke-width="1.5"></path><path d="M1093.09 206.71L946.02 108.92" stroke="rgba(229, 94, 233, 1)" stroke-width="1.5"></path><path d="M1093.09 206.71L1281.4 224.09" stroke="rgba(229, 94, 233, 1)" stroke-width="1.5"></path><path d="M1096.01 405.22L1096.01 405.22" stroke="rgba(229, 94, 233, 1)" stroke-width="1.5"></path><path d="M1096.01 405.22L1109.26 552.36" stroke="rgba(229, 94, 233, 1)" stroke-width="1.5"></path><path d="M1096.01 405.22L1093.09 206.71" stroke="rgba(229, 94, 233, 1)" stroke-width="1.5"></path><path d="M1096.01 405.22L1300.92 409.51" stroke="rgba(229, 94, 233, 1)" stroke-width="1.5"></path><path d="M1109.26 552.36L1109.26 552.36" stroke="rgba(229, 94, 233, 1)" stroke-width="1.5"></path><path d="M1109.26 552.36L1149.18 685.66" stroke="rgba(229, 94, 233, 1)" stroke-width="1.5"></path><path d="M1149.18 685.66L1149.18 685.66" stroke="rgba(229, 94, 233, 1)" stroke-width="1.5"></path><path d="M1149.18 685.66L1304.15 662.96" stroke="rgba(229, 94, 233, 1)" stroke-width="1.5"></path><path d="M1262.14 -60.75L1262.14 -60.75" stroke="rgba(229, 94, 233, 1)" stroke-width="1.5"></path><path d="M1262.14 -60.75L1287.2 42.83" stroke="rgba(229, 94, 233, 1)" stroke-width="1.5"></path><path d="M1262.14 -60.75L1430.27 -66.39" stroke="rgba(229, 94, 233, 1)" stroke-width="1.5"></path><path d="M1262.14 -60.75L1451.08 61.07" stroke="rgba(229, 94, 233, 1)" stroke-width="1.5"></path><path d="M1287.2 42.83L1287.2 42.83" stroke="rgba(229, 94, 233, 1)" stroke-width="1.5"></path><path d="M1287.2 42.83L1451.08 61.07" stroke="rgba(229, 94, 233, 1)" stroke-width="1.5"></path><path d="M1281.4 224.09L1281.4 224.09" stroke="rgba(229, 94, 233, 1)" stroke-width="1.5"></path><path d="M1281.4 224.09L1422.27 243.02" stroke="rgba(229, 94, 233, 1)" stroke-width="1.5"></path><path d="M1281.4 224.09L1287.2 42.83" stroke="rgba(229, 94, 233, 1)" stroke-width="1.5"></path><path d="M1281.4 224.09L1300.92 409.51" stroke="rgba(229, 94, 233, 1)" stroke-width="1.5"></path><path d="M1281.4 224.09L1421.6 397.47" stroke="rgba(229, 94, 233, 1)" stroke-width="1.5"></path><path d="M1300.92 409.51L1300.92 409.51" stroke="rgba(229, 94, 233, 1)" stroke-width="1.5"></path><path d="M1300.92 409.51L1421.6 397.47" stroke="rgba(229, 94, 233, 1)" stroke-width="1.5"></path><path d="M1300.92 409.51L1403.65 502.93" stroke="rgba(229, 94, 233, 1)" stroke-width="1.5"></path><path d="M1300.92 409.51L1422.27 243.02" stroke="rgba(229, 94, 233, 1)" stroke-width="1.5"></path><path d="M1300.92 409.51L1109.26 552.36" stroke="rgba(229, 94, 233, 1)" stroke-width="1.5"></path><path d="M1304.15 662.96L1304.15 662.96" stroke="rgba(229, 94, 233, 1)" stroke-width="1.5"></path><path d="M1304.15 662.96L1427.65 683.75" stroke="rgba(229, 94, 233, 1)" stroke-width="1.5"></path><path d="M1304.15 662.96L1403.65 502.93" stroke="rgba(229, 94, 233, 1)" stroke-width="1.5"></path><path d="M1304.15 662.96L1109.26 552.36" stroke="rgba(229, 94, 233, 1)" stroke-width="1.5"></path><path d="M1430.27 -66.39L1430.27 -66.39" stroke="rgba(229, 94, 233, 1)" stroke-width="1.5"></path><path d="M1430.27 -66.39L1451.08 61.07" stroke="rgba(229, 94, 233, 1)" stroke-width="1.5"></path><path d="M1430.27 -66.39L1566.94 -37.51" stroke="rgba(229, 94, 233, 1)" stroke-width="1.5"></path><path d="M1430.27 -66.39L1287.2 42.83" stroke="rgba(229, 94, 233, 1)" stroke-width="1.5"></path><path d="M1430.27 -66.39L1603.92 76.9" stroke="rgba(229, 94, 233, 1)" stroke-width="1.5"></path><path d="M1430.27 -66.39L1553.06 196.05" stroke="rgba(229, 94, 233, 1)" stroke-width="1.5"></path><path d="M1451.08 61.07L1451.08 61.07" stroke="rgba(229, 94, 233, 1)" stroke-width="1.5"></path><path d="M1451.08 61.07L1566.94 -37.51" stroke="rgba(229, 94, 233, 1)" stroke-width="1.5"></path><path d="M1451.08 61.07L1603.92 76.9" stroke="rgba(229, 94, 233, 1)" stroke-width="1.5"></path><path d="M1422.27 243.02L1422.27 243.02" stroke="rgba(229, 94, 233, 1)" stroke-width="1.5"></path><path d="M1422.27 243.02L1553.06 196.05" stroke="rgba(229, 94, 233, 1)" stroke-width="1.5"></path><path d="M1422.27 243.02L1421.6 397.47" stroke="rgba(229, 94, 233, 1)" stroke-width="1.5"></path><path d="M1422.27 243.02L1451.08 61.07" stroke="rgba(229, 94, 233, 1)" stroke-width="1.5"></path><path d="M1421.6 397.47L1421.6 397.47" stroke="rgba(229, 94, 233, 1)" stroke-width="1.5"></path><path d="M1421.6 397.47L1403.65 502.93" stroke="rgba(229, 94, 233, 1)" stroke-width="1.5"></path><path d="M1421.6 397.47L1563.98 537.53" stroke="rgba(229, 94, 233, 1)" stroke-width="1.5"></path><path d="M1421.6 397.47L1553.06 196.05" stroke="rgba(229, 94, 233, 1)" stroke-width="1.5"></path><path d="M1403.65 502.93L1403.65 502.93" stroke="rgba(229, 94, 233, 1)" stroke-width="1.5"></path><path d="M1403.65 502.93L1563.98 537.53" stroke="rgba(229, 94, 233, 1)" stroke-width="1.5"></path><path d="M1403.65 502.93L1427.65 683.75" stroke="rgba(229, 94, 233, 1)" stroke-width="1.5"></path><path d="M1403.65 502.93L1558.66 654.82" stroke="rgba(229, 94, 233, 1)" stroke-width="1.5"></path><path d="M1427.65 683.75L1427.65 683.75" stroke="rgba(229, 94, 233, 1)" stroke-width="1.5"></path><path d="M1427.65 683.75L1558.66 654.82" stroke="rgba(229, 94, 233, 1)" stroke-width="1.5"></path><path d="M1427.65 683.75L1563.98 537.53" stroke="rgba(229, 94, 233, 1)" stroke-width="1.5"></path><path d="M1566.94 -37.51L1566.94 -37.51" stroke="rgba(229, 94, 233, 1)" stroke-width="1.5"></path><path d="M1566.94 -37.51L1603.92 76.9" stroke="rgba(229, 94, 233, 1)" stroke-width="1.5"></path><path d="M1603.92 76.9L1603.92 76.9" stroke="rgba(229, 94, 233, 1)" stroke-width="1.5"></path><path d="M1603.92 76.9L1553.06 196.05" stroke="rgba(229, 94, 233, 1)" stroke-width="1.5"></path><path d="M1553.06 196.05L1553.06 196.05" stroke="rgba(229, 94, 233, 1)" stroke-width="1.5"></path><path d="M1553.06 196.05L1451.08 61.07" stroke="rgba(229, 94, 233, 1)" stroke-width="1.5"></path><path d="M1553.06 196.05L1566.94 -37.51" stroke="rgba(229, 94, 233, 1)" stroke-width="1.5"></path><path d="M1553.06 196.05L1281.4 224.09" stroke="rgba(229, 94, 233, 1)" stroke-width="1.5"></path><path d="M1563.98 537.53L1563.98 537.53" stroke="rgba(229, 94, 233, 1)" stroke-width="1.5"></path><path d="M1563.98 537.53L1558.66 654.82" stroke="rgba(229, 94, 233, 1)" stroke-width="1.5"></path><path d="M1558.66 654.82L1558.66 654.82" stroke="rgba(229, 94, 233, 1)" stroke-width="1.5"></path><path d="M1558.66 654.82L1304.15 662.96" stroke="rgba(229, 94, 233, 1)" stroke-width="1.5"></path><circle r="5" cx="-77.27" cy="367.51" fill="rgba(229, 94, 233, 1)"></circle><circle r="5" cx="-45.93" cy="496.45" fill="rgba(229, 94, 233, 1)"></circle><circle r="5" cx="-77.59" cy="655.83" fill="rgba(229, 94, 233, 1)"></circle><circle r="5" cx="69.17" cy="364.69" fill="rgba(229, 94, 233, 1)"></circle><circle r="5" cx="66.47" cy="542.47" fill="rgba(229, 94, 233, 1)"></circle><circle r="5" cx="69.03" cy="666.79" fill="rgba(229, 94, 233, 1)"></circle><circle r="5" cx="253.24" cy="407.98" fill="rgba(229, 94, 233, 1)"></circle><circle r="5" cx="249.89" cy="709.21" fill="rgba(229, 94, 233, 1)"></circle><circle r="5" cx="389.19" cy="395.23" fill="rgba(229, 94, 233, 1)"></circle><circle r="5" cx="379.91" cy="498.57" fill="rgba(229, 94, 233, 1)"></circle><circle r="5" cx="548.64" cy="360.98" fill="rgba(229, 94, 233, 1)"></circle><circle r="5" cx="662.17" cy="221.33" fill="rgba(229, 94, 233, 1)"></circle><circle r="5" cx="692.81" cy="376.07" fill="rgba(229, 94, 233, 1)"></circle><circle r="5" cx="689.59" cy="549.8" fill="rgba(229, 94, 233, 1)"></circle><circle r="5" cx="658.38" cy="674.43" fill="rgba(229, 94, 233, 1)"></circle><circle r="5" cx="828.13" cy="230.9" fill="rgba(229, 94, 233, 1)"></circle><circle r="5" cx="842.61" cy="352.16" fill="rgba(229, 94, 233, 1)"></circle><circle r="5" cx="831.01" cy="496.26" fill="rgba(229, 94, 233, 1)"></circle><circle r="5" cx="797.03" cy="675.46" fill="rgba(229, 94, 233, 1)"></circle><circle r="5" cx="946.02" cy="108.92" fill="rgba(229, 94, 233, 1)"></circle><circle r="5" cx="965.48" cy="221.82" fill="rgba(229, 94, 233, 1)"></circle><circle r="5" cx="971.66" cy="388.27" fill="rgba(229, 94, 233, 1)"></circle><circle r="5" cx="1007.57" cy="524.98" fill="rgba(229, 94, 233, 1)"></circle><circle r="5" cx="975.31" cy="698.49" fill="rgba(229, 94, 233, 1)"></circle><circle r="5" cx="1090.61" cy="87.69" fill="rgba(229, 94, 233, 1)"></circle><circle r="5" cx="1093.09" cy="206.71" fill="rgba(229, 94, 233, 1)"></circle><circle r="5" cx="1096.01" cy="405.22" fill="rgba(229, 94, 233, 1)"></circle><circle r="5" cx="1109.26" cy="552.36" fill="rgba(229, 94, 233, 1)"></circle><circle r="5" cx="1149.18" cy="685.66" fill="rgba(229, 94, 233, 1)"></circle><circle r="5" cx="1262.14" cy="-60.75" fill="rgba(229, 94, 233, 1)"></circle><circle r="5" cx="1287.2" cy="42.83" fill="rgba(229, 94, 233, 1)"></circle><circle r="5" cx="1281.4" cy="224.09" fill="rgba(229, 94, 233, 1)"></circle><circle r="5" cx="1300.92" cy="409.51" fill="rgba(229, 94, 233, 1)"></circle><circle r="5" cx="1304.15" cy="662.96" fill="rgba(229, 94, 233, 1)"></circle><circle r="5" cx="1430.27" cy="-66.39" fill="rgba(229, 94, 233, 1)"></circle><circle r="5" cx="1451.08" cy="61.07" fill="rgba(229, 94, 233, 1)"></circle><circle r="5" cx="1422.27" cy="243.02" fill="rgba(229, 94, 233, 1)"></circle><circle r="5" cx="1421.6" cy="397.47" fill="rgba(229, 94, 233, 1)"></circle><circle r="5" cx="1403.65" cy="502.93" fill="rgba(229, 94, 233, 1)"></circle><circle r="5" cx="1427.65" cy="683.75" fill="rgba(229, 94, 233, 1)"></circle><circle r="5" cx="1566.94" cy="-37.51" fill="rgba(229, 94, 233, 1)"></circle><circle r="5" cx="1603.92" cy="76.9" fill="rgba(229, 94, 233, 1)"></circle><circle r="5" cx="1553.06" cy="196.05" fill="rgba(229, 94, 233, 1)"></circle><circle r="5" cx="1563.98" cy="537.53" fill="rgba(229, 94, 233, 1)"></circle><circle r="5" cx="1558.66" cy="654.82" fill="rgba(229, 94, 233, 1)"></circle><path d="M39.99 674.43L39.99 674.43" stroke="hsl(194, 76.8%, 72.9%)" stroke-width="1.5"></path><path d="M39.99 674.43L-46.17 646.87" stroke="hsl(194, 76.8%, 72.9%)" stroke-width="1.5"></path><path d="M39.99 674.43L38.52 532.34" stroke="hsl(194, 76.8%, 72.9%)" stroke-width="1.5"></path><path d="M39.99 674.43L-49.65 533.56" stroke="hsl(194, 76.8%, 72.9%)" stroke-width="1.5"></path><path d="M39.99 674.43L246.84 646.54" stroke="hsl(194, 76.8%, 72.9%)" stroke-width="1.5"></path><path d="M39.99 674.43L228.5 511.75" stroke="hsl(194, 76.8%, 72.9%)" stroke-width="1.5"></path><path d="M39.99 674.43L368.23 494.21" stroke="hsl(194, 76.8%, 72.9%)" stroke-width="1.5"></path><path d="M246.84 646.54L246.84 646.54" stroke="hsl(194, 76.8%, 72.9%)" stroke-width="1.5"></path><path d="M246.84 646.54L228.5 511.75" stroke="hsl(194, 76.8%, 72.9%)" stroke-width="1.5"></path><path d="M246.84 646.54L368.23 494.21" stroke="hsl(194, 76.8%, 72.9%)" stroke-width="1.5"></path><path d="M246.84 646.54L38.52 532.34" stroke="hsl(194, 76.8%, 72.9%)" stroke-width="1.5"></path><path d="M246.84 646.54L500.63 682.82" stroke="hsl(194, 76.8%, 72.9%)" stroke-width="1.5"></path><path d="M246.84 646.54L516.07 556.32" stroke="hsl(194, 76.8%, 72.9%)" stroke-width="1.5"></path><path d="M516.07 556.32L516.07 556.32" stroke="hsl(194, 76.8%, 72.9%)" stroke-width="1.5"></path><path d="M516.07 556.32L500.63 682.82" stroke="hsl(194, 76.8%, 72.9%)" stroke-width="1.5"></path><path d="M516.07 556.32L368.23 494.21" stroke="hsl(194, 76.8%, 72.9%)" stroke-width="1.5"></path><path d="M516.07 556.32L643.61 654.62" stroke="hsl(194, 76.8%, 72.9%)" stroke-width="1.5"></path><path d="M516.07 556.32L703.85 551.79" stroke="hsl(194, 76.8%, 72.9%)" stroke-width="1.5"></path><path d="M516.07 556.32L638.61 402.64" stroke="hsl(194, 76.8%, 72.9%)" stroke-width="1.5"></path><path d="M643.61 654.62L643.61 654.62" stroke="hsl(194, 76.8%, 72.9%)" stroke-width="1.5"></path><path d="M643.61 654.62L703.85 551.79" stroke="hsl(194, 76.8%, 72.9%)" stroke-width="1.5"></path><path d="M643.61 654.62L500.63 682.82" stroke="hsl(194, 76.8%, 72.9%)" stroke-width="1.5"></path><path d="M643.61 654.62L843.37 652.78" stroke="hsl(194, 76.8%, 72.9%)" stroke-width="1.5"></path><path d="M643.61 654.62L809.92 531.93" stroke="hsl(194, 76.8%, 72.9%)" stroke-width="1.5"></path><path d="M1004.54 692.55L1004.54 692.55" stroke="hsl(194, 76.8%, 72.9%)" stroke-width="1.5"></path><path d="M1004.54 692.55L1112.43 688.15" stroke="hsl(194, 76.8%, 72.9%)" stroke-width="1.5"></path><path d="M1004.54 692.55L945.37 557.41" stroke="hsl(194, 76.8%, 72.9%)" stroke-width="1.5"></path><path d="M1004.54 692.55L843.37 652.78" stroke="hsl(194, 76.8%, 72.9%)" stroke-width="1.5"></path><path d="M1004.54 692.55L1149.1 499.45" stroke="hsl(194, 76.8%, 72.9%)" stroke-width="1.5"></path><path d="M1152.65 207.71L1152.65 207.71" stroke="hsl(194, 76.8%, 72.9%)" stroke-width="1.5"></path><path d="M1152.65 207.71L1308.56 219.39" stroke="hsl(194, 76.8%, 72.9%)" stroke-width="1.5"></path><path d="M1152.65 207.71L999.21 259.48" stroke="hsl(194, 76.8%, 72.9%)" stroke-width="1.5"></path><path d="M1152.65 207.71L1124.76 373.56" stroke="hsl(194, 76.8%, 72.9%)" stroke-width="1.5"></path><path d="M1124.76 373.56L1124.76 373.56" stroke="hsl(194, 76.8%, 72.9%)" stroke-width="1.5"></path><path d="M1124.76 373.56L1149.1 499.45" stroke="hsl(194, 76.8%, 72.9%)" stroke-width="1.5"></path><path d="M1124.76 373.56L986.52 341.53" stroke="hsl(194, 76.8%, 72.9%)" stroke-width="1.5"></path><path d="M1124.76 373.56L999.21 259.48" stroke="hsl(194, 76.8%, 72.9%)" stroke-width="1.5"></path><path d="M1124.76 373.56L1300.76 377.71" stroke="hsl(194, 76.8%, 72.9%)" stroke-width="1.5"></path><path d="M1239.35 -54.44L1239.35 -54.44" stroke="hsl(194, 76.8%, 72.9%)" stroke-width="1.5"></path><path d="M1239.35 -54.44L1162.08 -111.88" stroke="hsl(194, 76.8%, 72.9%)" stroke-width="1.5"></path><path d="M1239.35 -54.44L1250.02 59.71" stroke="hsl(194, 76.8%, 72.9%)" stroke-width="1.5"></path><path d="M1239.35 -54.44L1444.91 95.58" stroke="hsl(194, 76.8%, 72.9%)" stroke-width="1.5"></path><path d="M1239.35 -54.44L1152.65 207.71" stroke="hsl(194, 76.8%, 72.9%)" stroke-width="1.5"></path><path d="M1239.35 -54.44L1308.56 219.39" stroke="hsl(194, 76.8%, 72.9%)" stroke-width="1.5"></path><path d="M1308.56 219.39L1308.56 219.39" stroke="hsl(194, 76.8%, 72.9%)" stroke-width="1.5"></path><path d="M1308.56 219.39L1412.16 258.09" stroke="hsl(194, 76.8%, 72.9%)" stroke-width="1.5"></path><path d="M1308.56 219.39L1300.76 377.71" stroke="hsl(194, 76.8%, 72.9%)" stroke-width="1.5"></path><path d="M1402.59 358.44L1402.59 358.44" stroke="hsl(194, 76.8%, 72.9%)" stroke-width="1.5"></path><path d="M1402.59 358.44L1412.16 258.09" stroke="hsl(194, 76.8%, 72.9%)" stroke-width="1.5"></path><path d="M1402.59 358.44L1300.76 377.71" stroke="hsl(194, 76.8%, 72.9%)" stroke-width="1.5"></path><path d="M1402.59 358.44L1308.56 219.39" stroke="hsl(194, 76.8%, 72.9%)" stroke-width="1.5"></path><path d="M1402.59 358.44L1578.43 342.97" stroke="hsl(194, 76.8%, 72.9%)" stroke-width="1.5"></path><path d="M1402.59 358.44L1543.17 490.63" stroke="hsl(194, 76.8%, 72.9%)" stroke-width="1.5"></path><path d="M-49.65 533.56L-49.65 533.56" stroke="hsl(194, 76.8%, 72.9%)" stroke-width="1.5"></path><path d="M-49.65 533.56L38.52 532.34" stroke="hsl(194, 76.8%, 72.9%)" stroke-width="1.5"></path><path d="M-49.65 533.56L-46.17 646.87" stroke="hsl(194, 76.8%, 72.9%)" stroke-width="1.5"></path><path d="M-46.17 646.87L-46.17 646.87" stroke="hsl(194, 76.8%, 72.9%)" stroke-width="1.5"></path><path d="M-46.17 646.87L38.52 532.34" stroke="hsl(194, 76.8%, 72.9%)" stroke-width="1.5"></path><path d="M-46.17 646.87L246.84 646.54" stroke="hsl(194, 76.8%, 72.9%)" stroke-width="1.5"></path><path d="M-46.17 646.87L228.5 511.75" stroke="hsl(194, 76.8%, 72.9%)" stroke-width="1.5"></path><path d="M38.52 532.34L38.52 532.34" stroke="hsl(194, 76.8%, 72.9%)" stroke-width="1.5"></path><path d="M38.52 532.34L228.5 511.75" stroke="hsl(194, 76.8%, 72.9%)" stroke-width="1.5"></path><path d="M228.5 511.75L228.5 511.75" stroke="hsl(194, 76.8%, 72.9%)" stroke-width="1.5"></path><path d="M228.5 511.75L368.23 494.21" stroke="hsl(194, 76.8%, 72.9%)" stroke-width="1.5"></path><path d="M228.5 511.75L-49.65 533.56" stroke="hsl(194, 76.8%, 72.9%)" stroke-width="1.5"></path><path d="M228.5 511.75L516.07 556.32" stroke="hsl(194, 76.8%, 72.9%)" stroke-width="1.5"></path><path d="M368.23 494.21L368.23 494.21" stroke="hsl(194, 76.8%, 72.9%)" stroke-width="1.5"></path><path d="M500.63 682.82L500.63 682.82" stroke="hsl(194, 76.8%, 72.9%)" stroke-width="1.5"></path><path d="M500.63 682.82L368.23 494.21" stroke="hsl(194, 76.8%, 72.9%)" stroke-width="1.5"></path><path d="M500.63 682.82L703.85 551.79" stroke="hsl(194, 76.8%, 72.9%)" stroke-width="1.5"></path><path d="M638.61 402.64L638.61 402.64" stroke="hsl(194, 76.8%, 72.9%)" stroke-width="1.5"></path><path d="M638.61 402.64L703.85 551.79" stroke="hsl(194, 76.8%, 72.9%)" stroke-width="1.5"></path><path d="M638.61 402.64L819.24 349.14" stroke="hsl(194, 76.8%, 72.9%)" stroke-width="1.5"></path><path d="M703.85 551.79L703.85 551.79" stroke="hsl(194, 76.8%, 72.9%)" stroke-width="1.5"></path><path d="M703.85 551.79L809.92 531.93" stroke="hsl(194, 76.8%, 72.9%)" stroke-width="1.5"></path><path d="M819.24 349.14L819.24 349.14" stroke="hsl(194, 76.8%, 72.9%)" stroke-width="1.5"></path><path d="M819.24 349.14L986.52 341.53" stroke="hsl(194, 76.8%, 72.9%)" stroke-width="1.5"></path><path d="M819.24 349.14L809.92 531.93" stroke="hsl(194, 76.8%, 72.9%)" stroke-width="1.5"></path><path d="M809.92 531.93L809.92 531.93" stroke="hsl(194, 76.8%, 72.9%)" stroke-width="1.5"></path><path d="M809.92 531.93L843.37 652.78" stroke="hsl(194, 76.8%, 72.9%)" stroke-width="1.5"></path><path d="M809.92 531.93L945.37 557.41" stroke="hsl(194, 76.8%, 72.9%)" stroke-width="1.5"></path><path d="M843.37 652.78L843.37 652.78" stroke="hsl(194, 76.8%, 72.9%)" stroke-width="1.5"></path><path d="M843.37 652.78L945.37 557.41" stroke="hsl(194, 76.8%, 72.9%)" stroke-width="1.5"></path><path d="M999.21 259.48L999.21 259.48" stroke="hsl(194, 76.8%, 72.9%)" stroke-width="1.5"></path><path d="M999.21 259.48L986.52 341.53" stroke="hsl(194, 76.8%, 72.9%)" stroke-width="1.5"></path><path d="M999.21 259.48L819.24 349.14" stroke="hsl(194, 76.8%, 72.9%)" stroke-width="1.5"></path><path d="M986.52 341.53L986.52 341.53" stroke="hsl(194, 76.8%, 72.9%)" stroke-width="1.5"></path><path d="M945.37 557.41L945.37 557.41" stroke="hsl(194, 76.8%, 72.9%)" stroke-width="1.5"></path><path d="M1162.08 -111.88L1162.08 -111.88" stroke="hsl(194, 76.8%, 72.9%)" stroke-width="1.5"></path><path d="M1162.08 -111.88L1250.02 59.71" stroke="hsl(194, 76.8%, 72.9%)" stroke-width="1.5"></path><path d="M1162.08 -111.88L1152.65 207.71" stroke="hsl(194, 76.8%, 72.9%)" stroke-width="1.5"></path><path d="M1162.08 -111.88L1444.91 95.58" stroke="hsl(194, 76.8%, 72.9%)" stroke-width="1.5"></path><path d="M1162.08 -111.88L1308.56 219.39" stroke="hsl(194, 76.8%, 72.9%)" stroke-width="1.5"></path><path d="M1149.1 499.45L1149.1 499.45" stroke="hsl(194, 76.8%, 72.9%)" stroke-width="1.5"></path><path d="M1149.1 499.45L1256.15 538.6" stroke="hsl(194, 76.8%, 72.9%)" stroke-width="1.5"></path><path d="M1149.1 499.45L1242.96 653.21" stroke="hsl(194, 76.8%, 72.9%)" stroke-width="1.5"></path><path d="M1149.1 499.45L1112.43 688.15" stroke="hsl(194, 76.8%, 72.9%)" stroke-width="1.5"></path><path d="M1112.43 688.15L1112.43 688.15" stroke="hsl(194, 76.8%, 72.9%)" stroke-width="1.5"></path><path d="M1112.43 688.15L1242.96 653.21" stroke="hsl(194, 76.8%, 72.9%)" stroke-width="1.5"></path><path d="M1112.43 688.15L1256.15 538.6" stroke="hsl(194, 76.8%, 72.9%)" stroke-width="1.5"></path><path d="M1112.43 688.15L945.37 557.41" stroke="hsl(194, 76.8%, 72.9%)" stroke-width="1.5"></path><path d="M1112.43 688.15L843.37 652.78" stroke="hsl(194, 76.8%, 72.9%)" stroke-width="1.5"></path><path d="M1250.02 59.71L1250.02 59.71" stroke="hsl(194, 76.8%, 72.9%)" stroke-width="1.5"></path><path d="M1250.02 59.71L1308.56 219.39" stroke="hsl(194, 76.8%, 72.9%)" stroke-width="1.5"></path><path d="M1300.76 377.71L1300.76 377.71" stroke="hsl(194, 76.8%, 72.9%)" stroke-width="1.5"></path><path d="M1300.76 377.71L1412.16 258.09" stroke="hsl(194, 76.8%, 72.9%)" stroke-width="1.5"></path><path d="M1300.76 377.71L1256.15 538.6" stroke="hsl(194, 76.8%, 72.9%)" stroke-width="1.5"></path><path d="M1256.15 538.6L1256.15 538.6" stroke="hsl(194, 76.8%, 72.9%)" stroke-width="1.5"></path><path d="M1256.15 538.6L1242.96 653.21" stroke="hsl(194, 76.8%, 72.9%)" stroke-width="1.5"></path><path d="M1256.15 538.6L1432.33 560.38" stroke="hsl(194, 76.8%, 72.9%)" stroke-width="1.5"></path><path d="M1256.15 538.6L1124.76 373.56" stroke="hsl(194, 76.8%, 72.9%)" stroke-width="1.5"></path><path d="M1242.96 653.21L1242.96 653.21" stroke="hsl(194, 76.8%, 72.9%)" stroke-width="1.5"></path><path d="M1444.91 95.58L1444.91 95.58" stroke="hsl(194, 76.8%, 72.9%)" stroke-width="1.5"></path><path d="M1444.91 95.58L1593.64 46.57" stroke="hsl(194, 76.8%, 72.9%)" stroke-width="1.5"></path><path d="M1444.91 95.58L1568.98 192.7" stroke="hsl(194, 76.8%, 72.9%)" stroke-width="1.5"></path><path d="M1444.91 95.58L1412.16 258.09" stroke="hsl(194, 76.8%, 72.9%)" stroke-width="1.5"></path><path d="M1444.91 95.58L1308.56 219.39" stroke="hsl(194, 76.8%, 72.9%)" stroke-width="1.5"></path><path d="M1412.16 258.09L1412.16 258.09" stroke="hsl(194, 76.8%, 72.9%)" stroke-width="1.5"></path><path d="M1412.16 258.09L1568.98 192.7" stroke="hsl(194, 76.8%, 72.9%)" stroke-width="1.5"></path><path d="M1412.16 258.09L1578.43 342.97" stroke="hsl(194, 76.8%, 72.9%)" stroke-width="1.5"></path><path d="M1432.33 560.38L1432.33 560.38" stroke="hsl(194, 76.8%, 72.9%)" stroke-width="1.5"></path><path d="M1432.33 560.38L1543.17 490.63" stroke="hsl(194, 76.8%, 72.9%)" stroke-width="1.5"></path><path d="M1609.65 -91.47L1609.65 -91.47" stroke="hsl(194, 76.8%, 72.9%)" stroke-width="1.5"></path><path d="M1609.65 -91.47L1593.64 46.57" stroke="hsl(194, 76.8%, 72.9%)" stroke-width="1.5"></path><path d="M1609.65 -91.47L1444.91 95.58" stroke="hsl(194, 76.8%, 72.9%)" stroke-width="1.5"></path><path d="M1609.65 -91.47L1568.98 192.7" stroke="hsl(194, 76.8%, 72.9%)" stroke-width="1.5"></path><path d="M1609.65 -91.47L1239.35 -54.44" stroke="hsl(194, 76.8%, 72.9%)" stroke-width="1.5"></path><path d="M1593.64 46.57L1593.64 46.57" stroke="hsl(194, 76.8%, 72.9%)" stroke-width="1.5"></path><path d="M1593.64 46.57L1568.98 192.7" stroke="hsl(194, 76.8%, 72.9%)" stroke-width="1.5"></path><path d="M1568.98 192.7L1568.98 192.7" stroke="hsl(194, 76.8%, 72.9%)" stroke-width="1.5"></path><path d="M1568.98 192.7L1578.43 342.97" stroke="hsl(194, 76.8%, 72.9%)" stroke-width="1.5"></path><path d="M1578.43 342.97L1578.43 342.97" stroke="hsl(194, 76.8%, 72.9%)" stroke-width="1.5"></path><path d="M1578.43 342.97L1543.17 490.63" stroke="hsl(194, 76.8%, 72.9%)" stroke-width="1.5"></path><path d="M1578.43 342.97L1432.33 560.38" stroke="hsl(194, 76.8%, 72.9%)" stroke-width="1.5"></path><path d="M1578.43 342.97L1300.76 377.71" stroke="hsl(194, 76.8%, 72.9%)" stroke-width="1.5"></path><path d="M1543.17 490.63L1543.17 490.63" stroke="hsl(194, 76.8%, 72.9%)" stroke-width="1.5"></path><path d="M1542.62 706.89L1542.62 706.89" stroke="hsl(194, 76.8%, 72.9%)" stroke-width="1.5"></path><path d="M1542.62 706.89L1432.33 560.38" stroke="hsl(194, 76.8%, 72.9%)" stroke-width="1.5"></path><path d="M1542.62 706.89L1543.17 490.63" stroke="hsl(194, 76.8%, 72.9%)" stroke-width="1.5"></path><path d="M1542.62 706.89L1242.96 653.21" stroke="hsl(194, 76.8%, 72.9%)" stroke-width="1.5"></path><path d="M1542.62 706.89L1256.15 538.6" stroke="hsl(194, 76.8%, 72.9%)" stroke-width="1.5"></path><circle r="25" cx="39.99" cy="674.43" fill="url(#SvgjsRadialGradient1777)"></circle><circle r="25" cx="246.84" cy="646.54" fill="url(#SvgjsRadialGradient1777)"></circle><circle r="25" cx="516.07" cy="556.32" fill="url(#SvgjsRadialGradient1777)"></circle><circle r="25" cx="643.61" cy="654.62" fill="url(#SvgjsRadialGradient1777)"></circle><circle r="25" cx="1004.54" cy="692.55" fill="url(#SvgjsRadialGradient1777)"></circle><circle r="25" cx="1152.65" cy="207.71" fill="url(#SvgjsRadialGradient1777)"></circle><circle r="25" cx="1124.76" cy="373.56" fill="url(#SvgjsRadialGradient1777)"></circle><circle r="25" cx="1239.35" cy="-54.44" fill="url(#SvgjsRadialGradient1777)"></circle><circle r="25" cx="1308.56" cy="219.39" fill="url(#SvgjsRadialGradient1777)"></circle><circle r="25" cx="1402.59" cy="358.44" fill="url(#SvgjsRadialGradient1777)"></circle><circle r="5" cx="-49.65" cy="533.56" fill="#9cdef2"></circle><circle r="5" cx="-46.17" cy="646.87" fill="#9cdef2"></circle><circle r="5" cx="38.52" cy="532.34" fill="#9cdef2"></circle><circle r="5" cx="228.5" cy="511.75" fill="#9cdef2"></circle><circle r="5" cx="368.23" cy="494.21" fill="#9cdef2"></circle><circle r="5" cx="500.63" cy="682.82" fill="#9cdef2"></circle><circle r="5" cx="638.61" cy="402.64" fill="#9cdef2"></circle><circle r="5" cx="703.85" cy="551.79" fill="#9cdef2"></circle><circle r="5" cx="819.24" cy="349.14" fill="#9cdef2"></circle><circle r="5" cx="809.92" cy="531.93" fill="#9cdef2"></circle><circle r="5" cx="843.37" cy="652.78" fill="#9cdef2"></circle><circle r="5" cx="999.21" cy="259.48" fill="#9cdef2"></circle><circle r="5" cx="986.52" cy="341.53" fill="#9cdef2"></circle><circle r="5" cx="945.37" cy="557.41" fill="#9cdef2"></circle><circle r="5" cx="1162.08" cy="-111.88" fill="#9cdef2"></circle><circle r="5" cx="1149.1" cy="499.45" fill="#9cdef2"></circle><circle r="5" cx="1112.43" cy="688.15" fill="#9cdef2"></circle><circle r="5" cx="1250.02" cy="59.71" fill="#9cdef2"></circle><circle r="5" cx="1300.76" cy="377.71" fill="#9cdef2"></circle><circle r="5" cx="1256.15" cy="538.6" fill="#9cdef2"></circle><circle r="5" cx="1242.96" cy="653.21" fill="#9cdef2"></circle><circle r="5" cx="1444.91" cy="95.58" fill="#9cdef2"></circle><circle r="5" cx="1412.16" cy="258.09" fill="#9cdef2"></circle><circle r="5" cx="1432.33" cy="560.38" fill="#9cdef2"></circle><circle r="5" cx="1609.65" cy="-91.47" fill="#9cdef2"></circle><circle r="5" cx="1593.64" cy="46.57" fill="#9cdef2"></circle><circle r="5" cx="1568.98" cy="192.7" fill="#9cdef2"></circle><circle r="5" cx="1578.43" cy="342.97" fill="#9cdef2"></circle><circle r="5" cx="1543.17" cy="490.63" fill="#9cdef2"></circle><circle r="5" cx="1542.62" cy="706.89" fill="#9cdef2"></circle></g><defs><mask id="SvgjsMask1776"><rect width="1440" height="560" fill="#ffffff"></rect></mask><radialGradient id="SvgjsRadialGradient1777"><stop stop-color="#ffffff" offset="0.1"></stop><stop stop-color="rgba(57, 189, 229, 1)" offset="0.2"></stop><stop stop-color="rgba(57, 189, 229, 0)" offset="1"></stop></radialGradient></defs></svg>