<svg xmlns="http://www.w3.org/2000/svg" version="1.1" xmlns:xlink="http://www.w3.org/1999/xlink" xmlns:svgjs="http://svgjs.com/svgjs" width="600" height="800" preserveAspectRatio="none" viewBox="0 0 600 800"><g mask="url(&quot;#SvgjsMask1822&quot;)" fill="none"><rect width="600" height="800" x="0" y="0" fill="url(#SvgjsRadialGradient1823)"></rect><path d="M-42.42 545.99L-42.42 545.99" stroke="rgba(229, 94, 233, 0.56)" stroke-width="1.5"></path><path d="M-42.42 545.99L58.87 550.22" stroke="rgba(229, 94, 233, 0.56)" stroke-width="1.5"></path><path d="M-42.42 545.99L53.36 656.79" stroke="rgba(229, 94, 233, 0.56)" stroke-width="1.5"></path><path d="M-42.42 545.99L-63.34 737.22" stroke="rgba(229, 94, 233, 0.56)" stroke-width="1.5"></path><path d="M-42.42 545.99L155.46 570.68" stroke="rgba(229, 94, 233, 0.56)" stroke-width="1.5"></path><path d="M-42.42 545.99L142.99 443.14" stroke="rgba(229, 94, 233, 0.56)" stroke-width="1.5"></path><path d="M-63.34 737.22L-63.34 737.22" stroke="rgba(229, 94, 233, 0.56)" stroke-width="1.5"></path><path d="M-63.34 737.22L31.1 761.01" stroke="rgba(229, 94, 233, 0.56)" stroke-width="1.5"></path><path d="M-63.34 737.22L34.1 827.24" stroke="rgba(229, 94, 233, 0.56)" stroke-width="1.5"></path><path d="M-63.34 737.22L-71.48 870.15" stroke="rgba(229, 94, 233, 0.56)" stroke-width="1.5"></path><path d="M-63.34 737.22L53.36 656.79" stroke="rgba(229, 94, 233, 0.56)" stroke-width="1.5"></path><path d="M-63.34 737.22L152.43 726.21" stroke="rgba(229, 94, 233, 0.56)" stroke-width="1.5"></path><path d="M-71.48 870.15L-71.48 870.15" stroke="rgba(229, 94, 233, 0.56)" stroke-width="1.5"></path><path d="M-71.48 870.15L34.1 827.24" stroke="rgba(229, 94, 233, 0.56)" stroke-width="1.5"></path><path d="M-71.48 870.15L31.1 761.01" stroke="rgba(229, 94, 233, 0.56)" stroke-width="1.5"></path><path d="M-71.48 870.15L162.09 869.05" stroke="rgba(229, 94, 233, 0.56)" stroke-width="1.5"></path><path d="M58.87 550.22L58.87 550.22" stroke="rgba(229, 94, 233, 0.56)" stroke-width="1.5"></path><path d="M58.87 550.22L155.46 570.68" stroke="rgba(229, 94, 233, 0.56)" stroke-width="1.5"></path><path d="M58.87 550.22L53.36 656.79" stroke="rgba(229, 94, 233, 0.56)" stroke-width="1.5"></path><path d="M58.87 550.22L142.99 443.14" stroke="rgba(229, 94, 233, 0.56)" stroke-width="1.5"></path><path d="M58.87 550.22L149.4 652.68" stroke="rgba(229, 94, 233, 0.56)" stroke-width="1.5"></path><path d="M58.87 550.22L256.5 558.46" stroke="rgba(229, 94, 233, 0.56)" stroke-width="1.5"></path><path d="M53.36 656.79L53.36 656.79" stroke="rgba(229, 94, 233, 0.56)" stroke-width="1.5"></path><path d="M53.36 656.79L149.4 652.68" stroke="rgba(229, 94, 233, 0.56)" stroke-width="1.5"></path><path d="M53.36 656.79L31.1 761.01" stroke="rgba(229, 94, 233, 0.56)" stroke-width="1.5"></path><path d="M31.1 761.01L31.1 761.01" stroke="rgba(229, 94, 233, 0.56)" stroke-width="1.5"></path><path d="M31.1 761.01L34.1 827.24" stroke="rgba(229, 94, 233, 0.56)" stroke-width="1.5"></path><path d="M31.1 761.01L152.43 726.21" stroke="rgba(229, 94, 233, 0.56)" stroke-width="1.5"></path><path d="M34.1 827.24L34.1 827.24" stroke="rgba(229, 94, 233, 0.56)" stroke-width="1.5"></path><path d="M34.1 827.24L162.09 869.05" stroke="rgba(229, 94, 233, 0.56)" stroke-width="1.5"></path><path d="M34.1 827.24L152.43 726.21" stroke="rgba(229, 94, 233, 0.56)" stroke-width="1.5"></path><path d="M34.1 827.24L53.36 656.79" stroke="rgba(229, 94, 233, 0.56)" stroke-width="1.5"></path><path d="M142.99 443.14L142.99 443.14" stroke="rgba(229, 94, 233, 0.56)" stroke-width="1.5"></path><path d="M142.99 443.14L155.46 570.68" stroke="rgba(229, 94, 233, 0.56)" stroke-width="1.5"></path><path d="M155.46 570.68L155.46 570.68" stroke="rgba(229, 94, 233, 0.56)" stroke-width="1.5"></path><path d="M155.46 570.68L149.4 652.68" stroke="rgba(229, 94, 233, 0.56)" stroke-width="1.5"></path><path d="M155.46 570.68L256.5 558.46" stroke="rgba(229, 94, 233, 0.56)" stroke-width="1.5"></path><path d="M155.46 570.68L247.75 665.45" stroke="rgba(229, 94, 233, 0.56)" stroke-width="1.5"></path><path d="M149.4 652.68L149.4 652.68" stroke="rgba(229, 94, 233, 0.56)" stroke-width="1.5"></path><path d="M149.4 652.68L152.43 726.21" stroke="rgba(229, 94, 233, 0.56)" stroke-width="1.5"></path><path d="M149.4 652.68L247.75 665.45" stroke="rgba(229, 94, 233, 0.56)" stroke-width="1.5"></path><path d="M152.43 726.21L152.43 726.21" stroke="rgba(229, 94, 233, 0.56)" stroke-width="1.5"></path><path d="M152.43 726.21L247.75 665.45" stroke="rgba(229, 94, 233, 0.56)" stroke-width="1.5"></path><path d="M152.43 726.21L53.36 656.79" stroke="rgba(229, 94, 233, 0.56)" stroke-width="1.5"></path><path d="M162.09 869.05L162.09 869.05" stroke="rgba(229, 94, 233, 0.56)" stroke-width="1.5"></path><path d="M162.09 869.05L266.92 858.42" stroke="rgba(229, 94, 233, 0.56)" stroke-width="1.5"></path><path d="M261.35 366.89L261.35 366.89" stroke="rgba(229, 94, 233, 0.56)" stroke-width="1.5"></path><path d="M261.35 366.89L364.77 371.18" stroke="rgba(229, 94, 233, 0.56)" stroke-width="1.5"></path><path d="M261.35 366.89L336.62 452.45" stroke="rgba(229, 94, 233, 0.56)" stroke-width="1.5"></path><path d="M261.35 366.89L363.73 274.43" stroke="rgba(229, 94, 233, 0.56)" stroke-width="1.5"></path><path d="M261.35 366.89L142.99 443.14" stroke="rgba(229, 94, 233, 0.56)" stroke-width="1.5"></path><path d="M256.5 558.46L256.5 558.46" stroke="rgba(229, 94, 233, 0.56)" stroke-width="1.5"></path><path d="M256.5 558.46L332.05 530.73" stroke="rgba(229, 94, 233, 0.56)" stroke-width="1.5"></path><path d="M256.5 558.46L247.75 665.45" stroke="rgba(229, 94, 233, 0.56)" stroke-width="1.5"></path><path d="M256.5 558.46L336.62 452.45" stroke="rgba(229, 94, 233, 0.56)" stroke-width="1.5"></path><path d="M256.5 558.46L355.58 657.66" stroke="rgba(229, 94, 233, 0.56)" stroke-width="1.5"></path><path d="M247.75 665.45L247.75 665.45" stroke="rgba(229, 94, 233, 0.56)" stroke-width="1.5"></path><path d="M247.75 665.45L355.58 657.66" stroke="rgba(229, 94, 233, 0.56)" stroke-width="1.5"></path><path d="M266.92 858.42L266.92 858.42" stroke="rgba(229, 94, 233, 0.56)" stroke-width="1.5"></path><path d="M266.92 858.42L347.56 843.54" stroke="rgba(229, 94, 233, 0.56)" stroke-width="1.5"></path><path d="M266.92 858.42L366.23 755.66" stroke="rgba(229, 94, 233, 0.56)" stroke-width="1.5"></path><path d="M266.92 858.42L152.43 726.21" stroke="rgba(229, 94, 233, 0.56)" stroke-width="1.5"></path><path d="M371.7 128.42L371.7 128.42" stroke="rgba(229, 94, 233, 0.56)" stroke-width="1.5"></path><path d="M371.7 128.42L458 138.45" stroke="rgba(229, 94, 233, 0.56)" stroke-width="1.5"></path><path d="M371.7 128.42L465.31 28.42" stroke="rgba(229, 94, 233, 0.56)" stroke-width="1.5"></path><path d="M371.7 128.42L363.73 274.43" stroke="rgba(229, 94, 233, 0.56)" stroke-width="1.5"></path><path d="M371.7 128.42L433.16 274.15" stroke="rgba(229, 94, 233, 0.56)" stroke-width="1.5"></path><path d="M371.7 128.42L571.76 126.23" stroke="rgba(229, 94, 233, 0.56)" stroke-width="1.5"></path><path d="M363.73 274.43L363.73 274.43" stroke="rgba(229, 94, 233, 0.56)" stroke-width="1.5"></path><path d="M363.73 274.43L433.16 274.15" stroke="rgba(229, 94, 233, 0.56)" stroke-width="1.5"></path><path d="M363.73 274.43L429.66 325.09" stroke="rgba(229, 94, 233, 0.56)" stroke-width="1.5"></path><path d="M363.73 274.43L364.77 371.18" stroke="rgba(229, 94, 233, 0.56)" stroke-width="1.5"></path><path d="M363.73 274.43L458 138.45" stroke="rgba(229, 94, 233, 0.56)" stroke-width="1.5"></path><path d="M364.77 371.18L364.77 371.18" stroke="rgba(229, 94, 233, 0.56)" stroke-width="1.5"></path><path d="M364.77 371.18L429.66 325.09" stroke="rgba(229, 94, 233, 0.56)" stroke-width="1.5"></path><path d="M364.77 371.18L336.62 452.45" stroke="rgba(229, 94, 233, 0.56)" stroke-width="1.5"></path><path d="M364.77 371.18L457.98 442.24" stroke="rgba(229, 94, 233, 0.56)" stroke-width="1.5"></path><path d="M364.77 371.18L433.16 274.15" stroke="rgba(229, 94, 233, 0.56)" stroke-width="1.5"></path><path d="M336.62 452.45L336.62 452.45" stroke="rgba(229, 94, 233, 0.56)" stroke-width="1.5"></path><path d="M336.62 452.45L332.05 530.73" stroke="rgba(229, 94, 233, 0.56)" stroke-width="1.5"></path><path d="M336.62 452.45L457.98 442.24" stroke="rgba(229, 94, 233, 0.56)" stroke-width="1.5"></path><path d="M332.05 530.73L332.05 530.73" stroke="rgba(229, 94, 233, 0.56)" stroke-width="1.5"></path><path d="M332.05 530.73L448.19 537.46" stroke="rgba(229, 94, 233, 0.56)" stroke-width="1.5"></path><path d="M355.58 657.66L355.58 657.66" stroke="rgba(229, 94, 233, 0.56)" stroke-width="1.5"></path><path d="M355.58 657.66L366.23 755.66" stroke="rgba(229, 94, 233, 0.56)" stroke-width="1.5"></path><path d="M355.58 657.66L473.82 632.54" stroke="rgba(229, 94, 233, 0.56)" stroke-width="1.5"></path><path d="M355.58 657.66L332.05 530.73" stroke="rgba(229, 94, 233, 0.56)" stroke-width="1.5"></path><path d="M366.23 755.66L366.23 755.66" stroke="rgba(229, 94, 233, 0.56)" stroke-width="1.5"></path><path d="M366.23 755.66L347.56 843.54" stroke="rgba(229, 94, 233, 0.56)" stroke-width="1.5"></path><path d="M366.23 755.66L470.35 748.01" stroke="rgba(229, 94, 233, 0.56)" stroke-width="1.5"></path><path d="M366.23 755.66L441.85 848.15" stroke="rgba(229, 94, 233, 0.56)" stroke-width="1.5"></path><path d="M347.56 843.54L347.56 843.54" stroke="rgba(229, 94, 233, 0.56)" stroke-width="1.5"></path><path d="M347.56 843.54L441.85 848.15" stroke="rgba(229, 94, 233, 0.56)" stroke-width="1.5"></path><path d="M347.56 843.54L470.35 748.01" stroke="rgba(229, 94, 233, 0.56)" stroke-width="1.5"></path><path d="M347.56 843.54L355.58 657.66" stroke="rgba(229, 94, 233, 0.56)" stroke-width="1.5"></path><path d="M456.94 -56.36L456.94 -56.36" stroke="rgba(229, 94, 233, 0.56)" stroke-width="1.5"></path><path d="M456.94 -56.36L465.31 28.42" stroke="rgba(229, 94, 233, 0.56)" stroke-width="1.5"></path><path d="M456.94 -56.36L552.69 -61.56" stroke="rgba(229, 94, 233, 0.56)" stroke-width="1.5"></path><path d="M456.94 -56.36L563.52 51.03" stroke="rgba(229, 94, 233, 0.56)" stroke-width="1.5"></path><path d="M456.94 -56.36L635.68 -58.68" stroke="rgba(229, 94, 233, 0.56)" stroke-width="1.5"></path><path d="M456.94 -56.36L458 138.45" stroke="rgba(229, 94, 233, 0.56)" stroke-width="1.5"></path><path d="M456.94 -56.36L371.7 128.42" stroke="rgba(229, 94, 233, 0.56)" stroke-width="1.5"></path><path d="M465.31 28.42L465.31 28.42" stroke="rgba(229, 94, 233, 0.56)" stroke-width="1.5"></path><path d="M465.31 28.42L563.52 51.03" stroke="rgba(229, 94, 233, 0.56)" stroke-width="1.5"></path><path d="M465.31 28.42L458 138.45" stroke="rgba(229, 94, 233, 0.56)" stroke-width="1.5"></path><path d="M458 138.45L458 138.45" stroke="rgba(229, 94, 233, 0.56)" stroke-width="1.5"></path><path d="M458 138.45L571.76 126.23" stroke="rgba(229, 94, 233, 0.56)" stroke-width="1.5"></path><path d="M458 138.45L563.52 51.03" stroke="rgba(229, 94, 233, 0.56)" stroke-width="1.5"></path><path d="M458 138.45L433.16 274.15" stroke="rgba(229, 94, 233, 0.56)" stroke-width="1.5"></path><path d="M433.16 274.15L433.16 274.15" stroke="rgba(229, 94, 233, 0.56)" stroke-width="1.5"></path><path d="M433.16 274.15L429.66 325.09" stroke="rgba(229, 94, 233, 0.56)" stroke-width="1.5"></path><path d="M433.16 274.15L571.54 237.75" stroke="rgba(229, 94, 233, 0.56)" stroke-width="1.5"></path><path d="M429.66 325.09L429.66 325.09" stroke="rgba(229, 94, 233, 0.56)" stroke-width="1.5"></path><path d="M457.98 442.24L457.98 442.24" stroke="rgba(229, 94, 233, 0.56)" stroke-width="1.5"></path><path d="M457.98 442.24L448.19 537.46" stroke="rgba(229, 94, 233, 0.56)" stroke-width="1.5"></path><path d="M457.98 442.24L557.3 429.53" stroke="rgba(229, 94, 233, 0.56)" stroke-width="1.5"></path><path d="M457.98 442.24L429.66 325.09" stroke="rgba(229, 94, 233, 0.56)" stroke-width="1.5"></path><path d="M457.98 442.24L567.03 346.2" stroke="rgba(229, 94, 233, 0.56)" stroke-width="1.5"></path><path d="M448.19 537.46L448.19 537.46" stroke="rgba(229, 94, 233, 0.56)" stroke-width="1.5"></path><path d="M448.19 537.46L473.82 632.54" stroke="rgba(229, 94, 233, 0.56)" stroke-width="1.5"></path><path d="M473.82 632.54L473.82 632.54" stroke="rgba(229, 94, 233, 0.56)" stroke-width="1.5"></path><path d="M473.82 632.54L530.47 660.4" stroke="rgba(229, 94, 233, 0.56)" stroke-width="1.5"></path><path d="M473.82 632.54L470.35 748.01" stroke="rgba(229, 94, 233, 0.56)" stroke-width="1.5"></path><path d="M470.35 748.01L470.35 748.01" stroke="rgba(229, 94, 233, 0.56)" stroke-width="1.5"></path><path d="M470.35 748.01L533.78 745.46" stroke="rgba(229, 94, 233, 0.56)" stroke-width="1.5"></path><path d="M470.35 748.01L441.85 848.15" stroke="rgba(229, 94, 233, 0.56)" stroke-width="1.5"></path><path d="M470.35 748.01L536.46 829.7" stroke="rgba(229, 94, 233, 0.56)" stroke-width="1.5"></path><path d="M470.35 748.01L530.47 660.4" stroke="rgba(229, 94, 233, 0.56)" stroke-width="1.5"></path><path d="M441.85 848.15L441.85 848.15" stroke="rgba(229, 94, 233, 0.56)" stroke-width="1.5"></path><path d="M441.85 848.15L536.46 829.7" stroke="rgba(229, 94, 233, 0.56)" stroke-width="1.5"></path><path d="M552.69 -61.56L552.69 -61.56" stroke="rgba(229, 94, 233, 0.56)" stroke-width="1.5"></path><path d="M552.69 -61.56L635.68 -58.68" stroke="rgba(229, 94, 233, 0.56)" stroke-width="1.5"></path><path d="M552.69 -61.56L563.52 51.03" stroke="rgba(229, 94, 233, 0.56)" stroke-width="1.5"></path><path d="M552.69 -61.56L465.31 28.42" stroke="rgba(229, 94, 233, 0.56)" stroke-width="1.5"></path><path d="M552.69 -61.56L655.08 66.06" stroke="rgba(229, 94, 233, 0.56)" stroke-width="1.5"></path><path d="M552.69 -61.56L571.76 126.23" stroke="rgba(229, 94, 233, 0.56)" stroke-width="1.5"></path><path d="M563.52 51.03L563.52 51.03" stroke="rgba(229, 94, 233, 0.56)" stroke-width="1.5"></path><path d="M563.52 51.03L571.76 126.23" stroke="rgba(229, 94, 233, 0.56)" stroke-width="1.5"></path><path d="M563.52 51.03L655.08 66.06" stroke="rgba(229, 94, 233, 0.56)" stroke-width="1.5"></path><path d="M571.76 126.23L571.76 126.23" stroke="rgba(229, 94, 233, 0.56)" stroke-width="1.5"></path><path d="M571.76 126.23L639.17 159.86" stroke="rgba(229, 94, 233, 0.56)" stroke-width="1.5"></path><path d="M571.76 126.23L655.08 66.06" stroke="rgba(229, 94, 233, 0.56)" stroke-width="1.5"></path><path d="M571.76 126.23L571.54 237.75" stroke="rgba(229, 94, 233, 0.56)" stroke-width="1.5"></path><path d="M571.54 237.75L571.54 237.75" stroke="rgba(229, 94, 233, 0.56)" stroke-width="1.5"></path><path d="M571.54 237.75L639.17 159.86" stroke="rgba(229, 94, 233, 0.56)" stroke-width="1.5"></path><path d="M571.54 237.75L567.03 346.2" stroke="rgba(229, 94, 233, 0.56)" stroke-width="1.5"></path><path d="M567.03 346.2L567.03 346.2" stroke="rgba(229, 94, 233, 0.56)" stroke-width="1.5"></path><path d="M567.03 346.2L643.76 327.7" stroke="rgba(229, 94, 233, 0.56)" stroke-width="1.5"></path><path d="M567.03 346.2L557.3 429.53" stroke="rgba(229, 94, 233, 0.56)" stroke-width="1.5"></path><path d="M567.03 346.2L648.79 437.13" stroke="rgba(229, 94, 233, 0.56)" stroke-width="1.5"></path><path d="M567.03 346.2L429.66 325.09" stroke="rgba(229, 94, 233, 0.56)" stroke-width="1.5"></path><path d="M557.3 429.53L557.3 429.53" stroke="rgba(229, 94, 233, 0.56)" stroke-width="1.5"></path><path d="M557.3 429.53L648.79 437.13" stroke="rgba(229, 94, 233, 0.56)" stroke-width="1.5"></path><path d="M574.44 554.83L574.44 554.83" stroke="rgba(229, 94, 233, 0.56)" stroke-width="1.5"></path><path d="M574.44 554.83L643.18 545.36" stroke="rgba(229, 94, 233, 0.56)" stroke-width="1.5"></path><path d="M574.44 554.83L530.47 660.4" stroke="rgba(229, 94, 233, 0.56)" stroke-width="1.5"></path><path d="M574.44 554.83L663.32 643.49" stroke="rgba(229, 94, 233, 0.56)" stroke-width="1.5"></path><path d="M574.44 554.83L557.3 429.53" stroke="rgba(229, 94, 233, 0.56)" stroke-width="1.5"></path><path d="M530.47 660.4L530.47 660.4" stroke="rgba(229, 94, 233, 0.56)" stroke-width="1.5"></path><path d="M530.47 660.4L533.78 745.46" stroke="rgba(229, 94, 233, 0.56)" stroke-width="1.5"></path><path d="M533.78 745.46L533.78 745.46" stroke="rgba(229, 94, 233, 0.56)" stroke-width="1.5"></path><path d="M533.78 745.46L536.46 829.7" stroke="rgba(229, 94, 233, 0.56)" stroke-width="1.5"></path><path d="M533.78 745.46L627.96 766.69" stroke="rgba(229, 94, 233, 0.56)" stroke-width="1.5"></path><path d="M536.46 829.7L536.46 829.7" stroke="rgba(229, 94, 233, 0.56)" stroke-width="1.5"></path><path d="M536.46 829.7L647.12 829.45" stroke="rgba(229, 94, 233, 0.56)" stroke-width="1.5"></path><path d="M635.68 -58.68L635.68 -58.68" stroke="rgba(229, 94, 233, 0.56)" stroke-width="1.5"></path><path d="M635.68 -58.68L655.08 66.06" stroke="rgba(229, 94, 233, 0.56)" stroke-width="1.5"></path><path d="M635.68 -58.68L563.52 51.03" stroke="rgba(229, 94, 233, 0.56)" stroke-width="1.5"></path><path d="M635.68 -58.68L465.31 28.42" stroke="rgba(229, 94, 233, 0.56)" stroke-width="1.5"></path><path d="M655.08 66.06L655.08 66.06" stroke="rgba(229, 94, 233, 0.56)" stroke-width="1.5"></path><path d="M655.08 66.06L639.17 159.86" stroke="rgba(229, 94, 233, 0.56)" stroke-width="1.5"></path><path d="M639.17 159.86L639.17 159.86" stroke="rgba(229, 94, 233, 0.56)" stroke-width="1.5"></path><path d="M639.17 159.86L563.52 51.03" stroke="rgba(229, 94, 233, 0.56)" stroke-width="1.5"></path><path d="M643.76 327.7L643.76 327.7" stroke="rgba(229, 94, 233, 0.56)" stroke-width="1.5"></path><path d="M643.76 327.7L648.79 437.13" stroke="rgba(229, 94, 233, 0.56)" stroke-width="1.5"></path><path d="M643.76 327.7L571.54 237.75" stroke="rgba(229, 94, 233, 0.56)" stroke-width="1.5"></path><path d="M643.76 327.7L557.3 429.53" stroke="rgba(229, 94, 233, 0.56)" stroke-width="1.5"></path><path d="M643.76 327.7L639.17 159.86" stroke="rgba(229, 94, 233, 0.56)" stroke-width="1.5"></path><path d="M643.76 327.7L571.76 126.23" stroke="rgba(229, 94, 233, 0.56)" stroke-width="1.5"></path><path d="M648.79 437.13L648.79 437.13" stroke="rgba(229, 94, 233, 0.56)" stroke-width="1.5"></path><path d="M648.79 437.13L643.18 545.36" stroke="rgba(229, 94, 233, 0.56)" stroke-width="1.5"></path><path d="M648.79 437.13L574.44 554.83" stroke="rgba(229, 94, 233, 0.56)" stroke-width="1.5"></path><path d="M648.79 437.13L457.98 442.24" stroke="rgba(229, 94, 233, 0.56)" stroke-width="1.5"></path><path d="M643.18 545.36L643.18 545.36" stroke="rgba(229, 94, 233, 0.56)" stroke-width="1.5"></path><path d="M643.18 545.36L663.32 643.49" stroke="rgba(229, 94, 233, 0.56)" stroke-width="1.5"></path><path d="M663.32 643.49L663.32 643.49" stroke="rgba(229, 94, 233, 0.56)" stroke-width="1.5"></path><path d="M663.32 643.49L627.96 766.69" stroke="rgba(229, 94, 233, 0.56)" stroke-width="1.5"></path><path d="M663.32 643.49L530.47 660.4" stroke="rgba(229, 94, 233, 0.56)" stroke-width="1.5"></path><path d="M627.96 766.69L627.96 766.69" stroke="rgba(229, 94, 233, 0.56)" stroke-width="1.5"></path><path d="M627.96 766.69L647.12 829.45" stroke="rgba(229, 94, 233, 0.56)" stroke-width="1.5"></path><path d="M627.96 766.69L536.46 829.7" stroke="rgba(229, 94, 233, 0.56)" stroke-width="1.5"></path><path d="M627.96 766.69L530.47 660.4" stroke="rgba(229, 94, 233, 0.56)" stroke-width="1.5"></path><path d="M627.96 766.69L470.35 748.01" stroke="rgba(229, 94, 233, 0.56)" stroke-width="1.5"></path><path d="M647.12 829.45L647.12 829.45" stroke="rgba(229, 94, 233, 0.56)" stroke-width="1.5"></path><path d="M647.12 829.45L533.78 745.46" stroke="rgba(229, 94, 233, 0.56)" stroke-width="1.5"></path><path d="M647.12 829.45L663.32 643.49" stroke="rgba(229, 94, 233, 0.56)" stroke-width="1.5"></path><circle r="5" cx="-42.42" cy="545.99" fill="rgba(229, 94, 233, 0.56)"></circle><circle r="5" cx="-63.34" cy="737.22" fill="rgba(229, 94, 233, 0.56)"></circle><circle r="5" cx="-71.48" cy="870.15" fill="rgba(229, 94, 233, 0.56)"></circle><circle r="5" cx="58.87" cy="550.22" fill="rgba(229, 94, 233, 0.56)"></circle><circle r="5" cx="53.36" cy="656.79" fill="rgba(229, 94, 233, 0.56)"></circle><circle r="5" cx="31.1" cy="761.01" fill="rgba(229, 94, 233, 0.56)"></circle><circle r="5" cx="34.1" cy="827.24" fill="rgba(229, 94, 233, 0.56)"></circle><circle r="5" cx="142.99" cy="443.14" fill="rgba(229, 94, 233, 0.56)"></circle><circle r="5" cx="155.46" cy="570.68" fill="rgba(229, 94, 233, 0.56)"></circle><circle r="5" cx="149.4" cy="652.68" fill="rgba(229, 94, 233, 0.56)"></circle><circle r="5" cx="152.43" cy="726.21" fill="rgba(229, 94, 233, 0.56)"></circle><circle r="5" cx="162.09" cy="869.05" fill="rgba(229, 94, 233, 0.56)"></circle><circle r="5" cx="261.35" cy="366.89" fill="rgba(229, 94, 233, 0.56)"></circle><circle r="5" cx="256.5" cy="558.46" fill="rgba(229, 94, 233, 0.56)"></circle><circle r="5" cx="247.75" cy="665.45" fill="rgba(229, 94, 233, 0.56)"></circle><circle r="5" cx="266.92" cy="858.42" fill="rgba(229, 94, 233, 0.56)"></circle><circle r="5" cx="371.7" cy="128.42" fill="rgba(229, 94, 233, 0.56)"></circle><circle r="5" cx="363.73" cy="274.43" fill="rgba(229, 94, 233, 0.56)"></circle><circle r="5" cx="364.77" cy="371.18" fill="rgba(229, 94, 233, 0.56)"></circle><circle r="5" cx="336.62" cy="452.45" fill="rgba(229, 94, 233, 0.56)"></circle><circle r="5" cx="332.05" cy="530.73" fill="rgba(229, 94, 233, 0.56)"></circle><circle r="5" cx="355.58" cy="657.66" fill="rgba(229, 94, 233, 0.56)"></circle><circle r="5" cx="366.23" cy="755.66" fill="rgba(229, 94, 233, 0.56)"></circle><circle r="5" cx="347.56" cy="843.54" fill="rgba(229, 94, 233, 0.56)"></circle><circle r="5" cx="456.94" cy="-56.36" fill="rgba(229, 94, 233, 0.56)"></circle><circle r="5" cx="465.31" cy="28.42" fill="rgba(229, 94, 233, 0.56)"></circle><circle r="5" cx="458" cy="138.45" fill="rgba(229, 94, 233, 0.56)"></circle><circle r="5" cx="433.16" cy="274.15" fill="rgba(229, 94, 233, 0.56)"></circle><circle r="5" cx="429.66" cy="325.09" fill="rgba(229, 94, 233, 0.56)"></circle><circle r="5" cx="457.98" cy="442.24" fill="rgba(229, 94, 233, 0.56)"></circle><circle r="5" cx="448.19" cy="537.46" fill="rgba(229, 94, 233, 0.56)"></circle><circle r="5" cx="473.82" cy="632.54" fill="rgba(229, 94, 233, 0.56)"></circle><circle r="5" cx="470.35" cy="748.01" fill="rgba(229, 94, 233, 0.56)"></circle><circle r="5" cx="441.85" cy="848.15" fill="rgba(229, 94, 233, 0.56)"></circle><circle r="5" cx="552.69" cy="-61.56" fill="rgba(229, 94, 233, 0.56)"></circle><circle r="5" cx="563.52" cy="51.03" fill="rgba(229, 94, 233, 0.56)"></circle><circle r="5" cx="571.76" cy="126.23" fill="rgba(229, 94, 233, 0.56)"></circle><circle r="5" cx="571.54" cy="237.75" fill="rgba(229, 94, 233, 0.56)"></circle><circle r="5" cx="567.03" cy="346.2" fill="rgba(229, 94, 233, 0.56)"></circle><circle r="5" cx="557.3" cy="429.53" fill="rgba(229, 94, 233, 0.56)"></circle><circle r="5" cx="574.44" cy="554.83" fill="rgba(229, 94, 233, 0.56)"></circle><circle r="5" cx="530.47" cy="660.4" fill="rgba(229, 94, 233, 0.56)"></circle><circle r="5" cx="533.78" cy="745.46" fill="rgba(229, 94, 233, 0.56)"></circle><circle r="5" cx="536.46" cy="829.7" fill="rgba(229, 94, 233, 0.56)"></circle><circle r="5" cx="635.68" cy="-58.68" fill="rgba(229, 94, 233, 0.56)"></circle><circle r="5" cx="655.08" cy="66.06" fill="rgba(229, 94, 233, 0.56)"></circle><circle r="5" cx="639.17" cy="159.86" fill="rgba(229, 94, 233, 0.56)"></circle><circle r="5" cx="643.76" cy="327.7" fill="rgba(229, 94, 233, 0.56)"></circle><circle r="5" cx="648.79" cy="437.13" fill="rgba(229, 94, 233, 0.56)"></circle><circle r="5" cx="643.18" cy="545.36" fill="rgba(229, 94, 233, 0.56)"></circle><circle r="5" cx="663.32" cy="643.49" fill="rgba(229, 94, 233, 0.56)"></circle><circle r="5" cx="627.96" cy="766.69" fill="rgba(229, 94, 233, 0.56)"></circle><circle r="5" cx="647.12" cy="829.45" fill="rgba(229, 94, 233, 0.56)"></circle><path d="M148.45 725.28L148.45 725.28" stroke="hsla(194.10000000000002, 70%, 77.2%, 0.68)" stroke-width="1.5"></path><path d="M148.45 725.28L143.45 826.95" stroke="hsla(194.10000000000002, 70%, 77.2%, 0.68)" stroke-width="1.5"></path><path d="M474.53 674.13L474.53 674.13" stroke="hsla(194.10000000000002, 70%, 77.2%, 0.68)" stroke-width="1.5"></path><path d="M474.53 674.13L552.54 626.95" stroke="hsla(194.10000000000002, 70%, 77.2%, 0.68)" stroke-width="1.5"></path><path d="M474.53 674.13L434.01 762.22" stroke="hsla(194.10000000000002, 70%, 77.2%, 0.68)" stroke-width="1.5"></path><path d="M474.53 674.13L541.2 757.11" stroke="hsla(194.10000000000002, 70%, 77.2%, 0.68)" stroke-width="1.5"></path><path d="M564.89 333.53L564.89 333.53" stroke="hsla(194.10000000000002, 70%, 77.2%, 0.68)" stroke-width="1.5"></path><path d="M564.89 333.53L625.53 328.01" stroke="hsla(194.10000000000002, 70%, 77.2%, 0.68)" stroke-width="1.5"></path><path d="M564.89 333.53L544.27 232.67" stroke="hsla(194.10000000000002, 70%, 77.2%, 0.68)" stroke-width="1.5"></path><path d="M564.89 333.53L637.25 241.93" stroke="hsla(194.10000000000002, 70%, 77.2%, 0.68)" stroke-width="1.5"></path><path d="M546.99 566.31L546.99 566.31" stroke="hsla(194.10000000000002, 70%, 77.2%, 0.68)" stroke-width="1.5"></path><path d="M546.99 566.31L552.54 626.95" stroke="hsla(194.10000000000002, 70%, 77.2%, 0.68)" stroke-width="1.5"></path><path d="M546.99 566.31L626.43 554.73" stroke="hsla(194.10000000000002, 70%, 77.2%, 0.68)" stroke-width="1.5"></path><path d="M546.99 566.31L450.48 563.5" stroke="hsla(194.10000000000002, 70%, 77.2%, 0.68)" stroke-width="1.5"></path><path d="M552.54 626.95L552.54 626.95" stroke="hsla(194.10000000000002, 70%, 77.2%, 0.68)" stroke-width="1.5"></path><path d="M552.54 626.95L645.62 654.02" stroke="hsla(194.10000000000002, 70%, 77.2%, 0.68)" stroke-width="1.5"></path><path d="M552.54 626.95L626.43 554.73" stroke="hsla(194.10000000000002, 70%, 77.2%, 0.68)" stroke-width="1.5"></path><path d="M541.2 757.11L541.2 757.11" stroke="hsla(194.10000000000002, 70%, 77.2%, 0.68)" stroke-width="1.5"></path><path d="M541.2 757.11L540.67 844.56" stroke="hsla(194.10000000000002, 70%, 77.2%, 0.68)" stroke-width="1.5"></path><path d="M541.2 757.11L638.09 748.1" stroke="hsla(194.10000000000002, 70%, 77.2%, 0.68)" stroke-width="1.5"></path><path d="M541.2 757.11L434.01 762.22" stroke="hsla(194.10000000000002, 70%, 77.2%, 0.68)" stroke-width="1.5"></path><path d="M541.2 757.11L628.46 826.83" stroke="hsla(194.10000000000002, 70%, 77.2%, 0.68)" stroke-width="1.5"></path><path d="M541.2 757.11L552.54 626.95" stroke="hsla(194.10000000000002, 70%, 77.2%, 0.68)" stroke-width="1.5"></path><path d="M628.46 826.83L628.46 826.83" stroke="hsla(194.10000000000002, 70%, 77.2%, 0.68)" stroke-width="1.5"></path><path d="M628.46 826.83L638.09 748.1" stroke="hsla(194.10000000000002, 70%, 77.2%, 0.68)" stroke-width="1.5"></path><path d="M628.46 826.83L540.67 844.56" stroke="hsla(194.10000000000002, 70%, 77.2%, 0.68)" stroke-width="1.5"></path><path d="M628.46 826.83L462.61 866.47" stroke="hsla(194.10000000000002, 70%, 77.2%, 0.68)" stroke-width="1.5"></path><path d="M628.46 826.83L645.62 654.02" stroke="hsla(194.10000000000002, 70%, 77.2%, 0.68)" stroke-width="1.5"></path><path d="M-53.77 672.67L-53.77 672.67" stroke="hsla(194.10000000000002, 70%, 77.2%, 0.68)" stroke-width="1.5"></path><path d="M-53.77 672.67L-58.23 726.65" stroke="hsla(194.10000000000002, 70%, 77.2%, 0.68)" stroke-width="1.5"></path><path d="M-58.23 726.65L-58.23 726.65" stroke="hsla(194.10000000000002, 70%, 77.2%, 0.68)" stroke-width="1.5"></path><path d="M-58.23 726.65L33.55 774.01" stroke="hsla(194.10000000000002, 70%, 77.2%, 0.68)" stroke-width="1.5"></path><path d="M-25.4 848.57L-25.4 848.57" stroke="hsla(194.10000000000002, 70%, 77.2%, 0.68)" stroke-width="1.5"></path><path d="M-25.4 848.57L47.74 867.54" stroke="hsla(194.10000000000002, 70%, 77.2%, 0.68)" stroke-width="1.5"></path><path d="M-25.4 848.57L33.55 774.01" stroke="hsla(194.10000000000002, 70%, 77.2%, 0.68)" stroke-width="1.5"></path><path d="M50.11 666.1L50.11 666.1" stroke="hsla(194.10000000000002, 70%, 77.2%, 0.68)" stroke-width="1.5"></path><path d="M50.11 666.1L-53.77 672.67" stroke="hsla(194.10000000000002, 70%, 77.2%, 0.68)" stroke-width="1.5"></path><path d="M50.11 666.1L33.55 774.01" stroke="hsla(194.10000000000002, 70%, 77.2%, 0.68)" stroke-width="1.5"></path><path d="M50.11 666.1L148.45 725.28" stroke="hsla(194.10000000000002, 70%, 77.2%, 0.68)" stroke-width="1.5"></path><path d="M50.11 666.1L-58.23 726.65" stroke="hsla(194.10000000000002, 70%, 77.2%, 0.68)" stroke-width="1.5"></path><path d="M50.11 666.1L143.45 826.95" stroke="hsla(194.10000000000002, 70%, 77.2%, 0.68)" stroke-width="1.5"></path><path d="M33.55 774.01L33.55 774.01" stroke="hsla(194.10000000000002, 70%, 77.2%, 0.68)" stroke-width="1.5"></path><path d="M33.55 774.01L47.74 867.54" stroke="hsla(194.10000000000002, 70%, 77.2%, 0.68)" stroke-width="1.5"></path><path d="M33.55 774.01L143.45 826.95" stroke="hsla(194.10000000000002, 70%, 77.2%, 0.68)" stroke-width="1.5"></path><path d="M33.55 774.01L148.45 725.28" stroke="hsla(194.10000000000002, 70%, 77.2%, 0.68)" stroke-width="1.5"></path><path d="M47.74 867.54L47.74 867.54" stroke="hsla(194.10000000000002, 70%, 77.2%, 0.68)" stroke-width="1.5"></path><path d="M47.74 867.54L143.45 826.95" stroke="hsla(194.10000000000002, 70%, 77.2%, 0.68)" stroke-width="1.5"></path><path d="M47.74 867.54L148.45 725.28" stroke="hsla(194.10000000000002, 70%, 77.2%, 0.68)" stroke-width="1.5"></path><path d="M47.74 867.54L-58.23 726.65" stroke="hsla(194.10000000000002, 70%, 77.2%, 0.68)" stroke-width="1.5"></path><path d="M143.45 826.95L143.45 826.95" stroke="hsla(194.10000000000002, 70%, 77.2%, 0.68)" stroke-width="1.5"></path><path d="M143.45 826.95L237.71 855.51" stroke="hsla(194.10000000000002, 70%, 77.2%, 0.68)" stroke-width="1.5"></path><path d="M241.74 670.93L241.74 670.93" stroke="hsla(194.10000000000002, 70%, 77.2%, 0.68)" stroke-width="1.5"></path><path d="M241.74 670.93L254.42 734.47" stroke="hsla(194.10000000000002, 70%, 77.2%, 0.68)" stroke-width="1.5"></path><path d="M241.74 670.93L148.45 725.28" stroke="hsla(194.10000000000002, 70%, 77.2%, 0.68)" stroke-width="1.5"></path><path d="M254.42 734.47L254.42 734.47" stroke="hsla(194.10000000000002, 70%, 77.2%, 0.68)" stroke-width="1.5"></path><path d="M254.42 734.47L148.45 725.28" stroke="hsla(194.10000000000002, 70%, 77.2%, 0.68)" stroke-width="1.5"></path><path d="M254.42 734.47L368.53 760.13" stroke="hsla(194.10000000000002, 70%, 77.2%, 0.68)" stroke-width="1.5"></path><path d="M254.42 734.47L237.71 855.51" stroke="hsla(194.10000000000002, 70%, 77.2%, 0.68)" stroke-width="1.5"></path><path d="M254.42 734.47L143.45 826.95" stroke="hsla(194.10000000000002, 70%, 77.2%, 0.68)" stroke-width="1.5"></path><path d="M237.71 855.51L237.71 855.51" stroke="hsla(194.10000000000002, 70%, 77.2%, 0.68)" stroke-width="1.5"></path><path d="M237.71 855.51L364.51 828.64" stroke="hsla(194.10000000000002, 70%, 77.2%, 0.68)" stroke-width="1.5"></path><path d="M237.71 855.51L148.45 725.28" stroke="hsla(194.10000000000002, 70%, 77.2%, 0.68)" stroke-width="1.5"></path><path d="M237.71 855.51L368.53 760.13" stroke="hsla(194.10000000000002, 70%, 77.2%, 0.68)" stroke-width="1.5"></path><path d="M237.71 855.51L241.74 670.93" stroke="hsla(194.10000000000002, 70%, 77.2%, 0.68)" stroke-width="1.5"></path><path d="M344.83 464.64L344.83 464.64" stroke="hsla(194.10000000000002, 70%, 77.2%, 0.68)" stroke-width="1.5"></path><path d="M344.83 464.64L328.44 565.7" stroke="hsla(194.10000000000002, 70%, 77.2%, 0.68)" stroke-width="1.5"></path><path d="M344.83 464.64L464.8 451.77" stroke="hsla(194.10000000000002, 70%, 77.2%, 0.68)" stroke-width="1.5"></path><path d="M344.83 464.64L450.48 563.5" stroke="hsla(194.10000000000002, 70%, 77.2%, 0.68)" stroke-width="1.5"></path><path d="M344.83 464.64L442.97 346.15" stroke="hsla(194.10000000000002, 70%, 77.2%, 0.68)" stroke-width="1.5"></path><path d="M328.44 565.7L328.44 565.7" stroke="hsla(194.10000000000002, 70%, 77.2%, 0.68)" stroke-width="1.5"></path><path d="M328.44 565.7L367.78 644.56" stroke="hsla(194.10000000000002, 70%, 77.2%, 0.68)" stroke-width="1.5"></path><path d="M367.78 644.56L367.78 644.56" stroke="hsla(194.10000000000002, 70%, 77.2%, 0.68)" stroke-width="1.5"></path><path d="M367.78 644.56L474.53 674.13" stroke="hsla(194.10000000000002, 70%, 77.2%, 0.68)" stroke-width="1.5"></path><path d="M367.78 644.56L368.53 760.13" stroke="hsla(194.10000000000002, 70%, 77.2%, 0.68)" stroke-width="1.5"></path><path d="M367.78 644.56L450.48 563.5" stroke="hsla(194.10000000000002, 70%, 77.2%, 0.68)" stroke-width="1.5"></path><path d="M367.78 644.56L241.74 670.93" stroke="hsla(194.10000000000002, 70%, 77.2%, 0.68)" stroke-width="1.5"></path><path d="M367.78 644.56L434.01 762.22" stroke="hsla(194.10000000000002, 70%, 77.2%, 0.68)" stroke-width="1.5"></path><path d="M368.53 760.13L368.53 760.13" stroke="hsla(194.10000000000002, 70%, 77.2%, 0.68)" stroke-width="1.5"></path><path d="M368.53 760.13L434.01 762.22" stroke="hsla(194.10000000000002, 70%, 77.2%, 0.68)" stroke-width="1.5"></path><path d="M368.53 760.13L364.51 828.64" stroke="hsla(194.10000000000002, 70%, 77.2%, 0.68)" stroke-width="1.5"></path><path d="M368.53 760.13L474.53 674.13" stroke="hsla(194.10000000000002, 70%, 77.2%, 0.68)" stroke-width="1.5"></path><path d="M364.51 828.64L364.51 828.64" stroke="hsla(194.10000000000002, 70%, 77.2%, 0.68)" stroke-width="1.5"></path><path d="M364.51 828.64L434.01 762.22" stroke="hsla(194.10000000000002, 70%, 77.2%, 0.68)" stroke-width="1.5"></path><path d="M442.97 346.15L442.97 346.15" stroke="hsla(194.10000000000002, 70%, 77.2%, 0.68)" stroke-width="1.5"></path><path d="M442.97 346.15L464.8 451.77" stroke="hsla(194.10000000000002, 70%, 77.2%, 0.68)" stroke-width="1.5"></path><path d="M442.97 346.15L564.89 333.53" stroke="hsla(194.10000000000002, 70%, 77.2%, 0.68)" stroke-width="1.5"></path><path d="M442.97 346.15L544.27 232.67" stroke="hsla(194.10000000000002, 70%, 77.2%, 0.68)" stroke-width="1.5"></path><path d="M442.97 346.15L557.48 463.87" stroke="hsla(194.10000000000002, 70%, 77.2%, 0.68)" stroke-width="1.5"></path><path d="M442.97 346.15L625.53 328.01" stroke="hsla(194.10000000000002, 70%, 77.2%, 0.68)" stroke-width="1.5"></path><path d="M464.8 451.77L464.8 451.77" stroke="hsla(194.10000000000002, 70%, 77.2%, 0.68)" stroke-width="1.5"></path><path d="M464.8 451.77L557.48 463.87" stroke="hsla(194.10000000000002, 70%, 77.2%, 0.68)" stroke-width="1.5"></path><path d="M464.8 451.77L450.48 563.5" stroke="hsla(194.10000000000002, 70%, 77.2%, 0.68)" stroke-width="1.5"></path><path d="M450.48 563.5L450.48 563.5" stroke="hsla(194.10000000000002, 70%, 77.2%, 0.68)" stroke-width="1.5"></path><path d="M450.48 563.5L474.53 674.13" stroke="hsla(194.10000000000002, 70%, 77.2%, 0.68)" stroke-width="1.5"></path><path d="M450.48 563.5L552.54 626.95" stroke="hsla(194.10000000000002, 70%, 77.2%, 0.68)" stroke-width="1.5"></path><path d="M450.48 563.5L328.44 565.7" stroke="hsla(194.10000000000002, 70%, 77.2%, 0.68)" stroke-width="1.5"></path><path d="M434.01 762.22L434.01 762.22" stroke="hsla(194.10000000000002, 70%, 77.2%, 0.68)" stroke-width="1.5"></path><path d="M462.61 866.47L462.61 866.47" stroke="hsla(194.10000000000002, 70%, 77.2%, 0.68)" stroke-width="1.5"></path><path d="M462.61 866.47L540.67 844.56" stroke="hsla(194.10000000000002, 70%, 77.2%, 0.68)" stroke-width="1.5"></path><path d="M462.61 866.47L364.51 828.64" stroke="hsla(194.10000000000002, 70%, 77.2%, 0.68)" stroke-width="1.5"></path><path d="M462.61 866.47L434.01 762.22" stroke="hsla(194.10000000000002, 70%, 77.2%, 0.68)" stroke-width="1.5"></path><path d="M545.77 -53.32L545.77 -53.32" stroke="hsla(194.10000000000002, 70%, 77.2%, 0.68)" stroke-width="1.5"></path><path d="M545.77 -53.32L647.28 -39.27" stroke="hsla(194.10000000000002, 70%, 77.2%, 0.68)" stroke-width="1.5"></path><path d="M545.77 -53.32L629.79 37.67" stroke="hsla(194.10000000000002, 70%, 77.2%, 0.68)" stroke-width="1.5"></path><path d="M545.77 -53.32L533.65 70.72" stroke="hsla(194.10000000000002, 70%, 77.2%, 0.68)" stroke-width="1.5"></path><path d="M533.65 70.72L533.65 70.72" stroke="hsla(194.10000000000002, 70%, 77.2%, 0.68)" stroke-width="1.5"></path><path d="M533.65 70.72L554.58 130.3" stroke="hsla(194.10000000000002, 70%, 77.2%, 0.68)" stroke-width="1.5"></path><path d="M533.65 70.72L629.79 37.67" stroke="hsla(194.10000000000002, 70%, 77.2%, 0.68)" stroke-width="1.5"></path><path d="M533.65 70.72L627.73 138.39" stroke="hsla(194.10000000000002, 70%, 77.2%, 0.68)" stroke-width="1.5"></path><path d="M554.58 130.3L554.58 130.3" stroke="hsla(194.10000000000002, 70%, 77.2%, 0.68)" stroke-width="1.5"></path><path d="M554.58 130.3L627.73 138.39" stroke="hsla(194.10000000000002, 70%, 77.2%, 0.68)" stroke-width="1.5"></path><path d="M544.27 232.67L544.27 232.67" stroke="hsla(194.10000000000002, 70%, 77.2%, 0.68)" stroke-width="1.5"></path><path d="M544.27 232.67L637.25 241.93" stroke="hsla(194.10000000000002, 70%, 77.2%, 0.68)" stroke-width="1.5"></path><path d="M544.27 232.67L554.58 130.3" stroke="hsla(194.10000000000002, 70%, 77.2%, 0.68)" stroke-width="1.5"></path><path d="M544.27 232.67L625.53 328.01" stroke="hsla(194.10000000000002, 70%, 77.2%, 0.68)" stroke-width="1.5"></path><path d="M544.27 232.67L627.73 138.39" stroke="hsla(194.10000000000002, 70%, 77.2%, 0.68)" stroke-width="1.5"></path><path d="M557.48 463.87L557.48 463.87" stroke="hsla(194.10000000000002, 70%, 77.2%, 0.68)" stroke-width="1.5"></path><path d="M557.48 463.87L546.99 566.31" stroke="hsla(194.10000000000002, 70%, 77.2%, 0.68)" stroke-width="1.5"></path><path d="M557.48 463.87L664.41 427.84" stroke="hsla(194.10000000000002, 70%, 77.2%, 0.68)" stroke-width="1.5"></path><path d="M557.48 463.87L626.43 554.73" stroke="hsla(194.10000000000002, 70%, 77.2%, 0.68)" stroke-width="1.5"></path><path d="M557.48 463.87L564.89 333.53" stroke="hsla(194.10000000000002, 70%, 77.2%, 0.68)" stroke-width="1.5"></path><path d="M540.67 844.56L540.67 844.56" stroke="hsla(194.10000000000002, 70%, 77.2%, 0.68)" stroke-width="1.5"></path><path d="M540.67 844.56L434.01 762.22" stroke="hsla(194.10000000000002, 70%, 77.2%, 0.68)" stroke-width="1.5"></path><path d="M647.28 -39.27L647.28 -39.27" stroke="hsla(194.10000000000002, 70%, 77.2%, 0.68)" stroke-width="1.5"></path><path d="M647.28 -39.27L629.79 37.67" stroke="hsla(194.10000000000002, 70%, 77.2%, 0.68)" stroke-width="1.5"></path><path d="M647.28 -39.27L533.65 70.72" stroke="hsla(194.10000000000002, 70%, 77.2%, 0.68)" stroke-width="1.5"></path><path d="M647.28 -39.27L627.73 138.39" stroke="hsla(194.10000000000002, 70%, 77.2%, 0.68)" stroke-width="1.5"></path><path d="M647.28 -39.27L554.58 130.3" stroke="hsla(194.10000000000002, 70%, 77.2%, 0.68)" stroke-width="1.5"></path><path d="M629.79 37.67L629.79 37.67" stroke="hsla(194.10000000000002, 70%, 77.2%, 0.68)" stroke-width="1.5"></path><path d="M629.79 37.67L627.73 138.39" stroke="hsla(194.10000000000002, 70%, 77.2%, 0.68)" stroke-width="1.5"></path><path d="M629.79 37.67L554.58 130.3" stroke="hsla(194.10000000000002, 70%, 77.2%, 0.68)" stroke-width="1.5"></path><path d="M627.73 138.39L627.73 138.39" stroke="hsla(194.10000000000002, 70%, 77.2%, 0.68)" stroke-width="1.5"></path><path d="M637.25 241.93L637.25 241.93" stroke="hsla(194.10000000000002, 70%, 77.2%, 0.68)" stroke-width="1.5"></path><path d="M637.25 241.93L625.53 328.01" stroke="hsla(194.10000000000002, 70%, 77.2%, 0.68)" stroke-width="1.5"></path><path d="M637.25 241.93L627.73 138.39" stroke="hsla(194.10000000000002, 70%, 77.2%, 0.68)" stroke-width="1.5"></path><path d="M637.25 241.93L554.58 130.3" stroke="hsla(194.10000000000002, 70%, 77.2%, 0.68)" stroke-width="1.5"></path><path d="M625.53 328.01L625.53 328.01" stroke="hsla(194.10000000000002, 70%, 77.2%, 0.68)" stroke-width="1.5"></path><path d="M625.53 328.01L664.41 427.84" stroke="hsla(194.10000000000002, 70%, 77.2%, 0.68)" stroke-width="1.5"></path><path d="M625.53 328.01L557.48 463.87" stroke="hsla(194.10000000000002, 70%, 77.2%, 0.68)" stroke-width="1.5"></path><path d="M664.41 427.84L664.41 427.84" stroke="hsla(194.10000000000002, 70%, 77.2%, 0.68)" stroke-width="1.5"></path><path d="M664.41 427.84L626.43 554.73" stroke="hsla(194.10000000000002, 70%, 77.2%, 0.68)" stroke-width="1.5"></path><path d="M664.41 427.84L564.89 333.53" stroke="hsla(194.10000000000002, 70%, 77.2%, 0.68)" stroke-width="1.5"></path><path d="M664.41 427.84L546.99 566.31" stroke="hsla(194.10000000000002, 70%, 77.2%, 0.68)" stroke-width="1.5"></path><path d="M626.43 554.73L626.43 554.73" stroke="hsla(194.10000000000002, 70%, 77.2%, 0.68)" stroke-width="1.5"></path><path d="M626.43 554.73L645.62 654.02" stroke="hsla(194.10000000000002, 70%, 77.2%, 0.68)" stroke-width="1.5"></path><path d="M645.62 654.02L645.62 654.02" stroke="hsla(194.10000000000002, 70%, 77.2%, 0.68)" stroke-width="1.5"></path><path d="M645.62 654.02L638.09 748.1" stroke="hsla(194.10000000000002, 70%, 77.2%, 0.68)" stroke-width="1.5"></path><path d="M645.62 654.02L546.99 566.31" stroke="hsla(194.10000000000002, 70%, 77.2%, 0.68)" stroke-width="1.5"></path><path d="M645.62 654.02L541.2 757.11" stroke="hsla(194.10000000000002, 70%, 77.2%, 0.68)" stroke-width="1.5"></path><path d="M645.62 654.02L474.53 674.13" stroke="hsla(194.10000000000002, 70%, 77.2%, 0.68)" stroke-width="1.5"></path><path d="M638.09 748.1L638.09 748.1" stroke="hsla(194.10000000000002, 70%, 77.2%, 0.68)" stroke-width="1.5"></path><path d="M638.09 748.1L540.67 844.56" stroke="hsla(194.10000000000002, 70%, 77.2%, 0.68)" stroke-width="1.5"></path><path d="M638.09 748.1L552.54 626.95" stroke="hsla(194.10000000000002, 70%, 77.2%, 0.68)" stroke-width="1.5"></path><path d="M638.09 748.1L474.53 674.13" stroke="hsla(194.10000000000002, 70%, 77.2%, 0.68)" stroke-width="1.5"></path><circle r="25" cx="148.45" cy="725.28" fill="url(#SvgjsRadialGradient1824)"></circle><circle r="25" cx="474.53" cy="674.13" fill="url(#SvgjsRadialGradient1824)"></circle><circle r="25" cx="564.89" cy="333.53" fill="url(#SvgjsRadialGradient1824)"></circle><circle r="25" cx="546.99" cy="566.31" fill="url(#SvgjsRadialGradient1824)"></circle><circle r="25" cx="552.54" cy="626.95" fill="url(#SvgjsRadialGradient1824)"></circle><circle r="25" cx="541.2" cy="757.11" fill="url(#SvgjsRadialGradient1824)"></circle><circle r="25" cx="628.46" cy="826.83" fill="url(#SvgjsRadialGradient1824)"></circle><circle r="5" cx="-53.77" cy="672.67" fill="rgba(195, 233, 245, 0.8400000000000001)"></circle><circle r="5" cx="-58.23" cy="726.65" fill="rgba(195, 233, 245, 0.8400000000000001)"></circle><circle r="5" cx="-25.4" cy="848.57" fill="rgba(195, 233, 245, 0.8400000000000001)"></circle><circle r="5" cx="50.11" cy="666.1" fill="rgba(195, 233, 245, 0.8400000000000001)"></circle><circle r="5" cx="33.55" cy="774.01" fill="rgba(195, 233, 245, 0.8400000000000001)"></circle><circle r="5" cx="47.74" cy="867.54" fill="rgba(195, 233, 245, 0.8400000000000001)"></circle><circle r="5" cx="143.45" cy="826.95" fill="rgba(195, 233, 245, 0.8400000000000001)"></circle><circle r="5" cx="241.74" cy="670.93" fill="rgba(195, 233, 245, 0.8400000000000001)"></circle><circle r="5" cx="254.42" cy="734.47" fill="rgba(195, 233, 245, 0.8400000000000001)"></circle><circle r="5" cx="237.71" cy="855.51" fill="rgba(195, 233, 245, 0.8400000000000001)"></circle><circle r="5" cx="344.83" cy="464.64" fill="rgba(195, 233, 245, 0.8400000000000001)"></circle><circle r="5" cx="328.44" cy="565.7" fill="rgba(195, 233, 245, 0.8400000000000001)"></circle><circle r="5" cx="367.78" cy="644.56" fill="rgba(195, 233, 245, 0.8400000000000001)"></circle><circle r="5" cx="368.53" cy="760.13" fill="rgba(195, 233, 245, 0.8400000000000001)"></circle><circle r="5" cx="364.51" cy="828.64" fill="rgba(195, 233, 245, 0.8400000000000001)"></circle><circle r="5" cx="442.97" cy="346.15" fill="rgba(195, 233, 245, 0.8400000000000001)"></circle><circle r="5" cx="464.8" cy="451.77" fill="rgba(195, 233, 245, 0.8400000000000001)"></circle><circle r="5" cx="450.48" cy="563.5" fill="rgba(195, 233, 245, 0.8400000000000001)"></circle><circle r="5" cx="434.01" cy="762.22" fill="rgba(195, 233, 245, 0.8400000000000001)"></circle><circle r="5" cx="462.61" cy="866.47" fill="rgba(195, 233, 245, 0.8400000000000001)"></circle><circle r="5" cx="545.77" cy="-53.32" fill="rgba(195, 233, 245, 0.8400000000000001)"></circle><circle r="5" cx="533.65" cy="70.72" fill="rgba(195, 233, 245, 0.8400000000000001)"></circle><circle r="5" cx="554.58" cy="130.3" fill="rgba(195, 233, 245, 0.8400000000000001)"></circle><circle r="5" cx="544.27" cy="232.67" fill="rgba(195, 233, 245, 0.8400000000000001)"></circle><circle r="5" cx="557.48" cy="463.87" fill="rgba(195, 233, 245, 0.8400000000000001)"></circle><circle r="5" cx="540.67" cy="844.56" fill="rgba(195, 233, 245, 0.8400000000000001)"></circle><circle r="5" cx="647.28" cy="-39.27" fill="rgba(195, 233, 245, 0.8400000000000001)"></circle><circle r="5" cx="629.79" cy="37.67" fill="rgba(195, 233, 245, 0.8400000000000001)"></circle><circle r="5" cx="627.73" cy="138.39" fill="rgba(195, 233, 245, 0.8400000000000001)"></circle><circle r="5" cx="637.25" cy="241.93" fill="rgba(195, 233, 245, 0.8400000000000001)"></circle><circle r="5" cx="625.53" cy="328.01" fill="rgba(195, 233, 245, 0.8400000000000001)"></circle><circle r="5" cx="664.41" cy="427.84" fill="rgba(195, 233, 245, 0.8400000000000001)"></circle><circle r="5" cx="626.43" cy="554.73" fill="rgba(195, 233, 245, 0.8400000000000001)"></circle><circle r="5" cx="645.62" cy="654.02" fill="rgba(195, 233, 245, 0.8400000000000001)"></circle><circle r="5" cx="638.09" cy="748.1" fill="rgba(195, 233, 245, 0.8400000000000001)"></circle></g><defs><mask id="SvgjsMask1822"><rect width="600" height="800" fill="#ffffff"></rect></mask><radialGradient cx="0%" cy="100%" r="1000" gradientUnits="userSpaceOnUse" id="SvgjsRadialGradient1823"><stop stop-color="rgba(14, 42, 71, 1)" offset="0"></stop><stop stop-color="rgba(155, 47, 163, 0.29)" offset="0.37"></stop></radialGradient><radialGradient id="SvgjsRadialGradient1824"><stop stop-color="#ffffff" offset="0.1"></stop><stop stop-color="rgba(79, 190, 224, 0.68)" offset="0.2"></stop><stop stop-color="rgba(79, 190, 224, 0)" offset="1"></stop></radialGradient></defs></svg>