<svg xmlns="http://www.w3.org/2000/svg" version="1.1" xmlns:xlink="http://www.w3.org/1999/xlink" xmlns:svgjs="http://svgjs.com/svgjs" width="1440" height="560" preserveAspectRatio="none" viewBox="0 0 1440 560"><g mask="url(&quot;#SvgjsMask1764&quot;)" fill="none"><rect width="1440" height="560" x="0" y="0" fill="url(#SvgjsLinearGradient1765)"></rect><path d="M-68.87 403.97L-68.87 403.97" stroke="rgba(229, 94, 233, 1)" stroke-width="1.5"></path><path d="M-68.87 403.97L-106.15 555.35" stroke="rgba(229, 94, 233, 1)" stroke-width="1.5"></path><path d="M-68.87 403.97L96.31 407.13" stroke="rgba(229, 94, 233, 1)" stroke-width="1.5"></path><path d="M-68.87 403.97L108.71 561.13" stroke="rgba(229, 94, 233, 1)" stroke-width="1.5"></path><path d="M-68.87 403.97L40.93 649.31" stroke="rgba(229, 94, 233, 1)" stroke-width="1.5"></path><path d="M-68.87 403.97L-77.22 695.09" stroke="rgba(229, 94, 233, 1)" stroke-width="1.5"></path><path d="M-106.15 555.35L-106.15 555.35" stroke="rgba(229, 94, 233, 1)" stroke-width="1.5"></path><path d="M-106.15 555.35L-77.22 695.09" stroke="rgba(229, 94, 233, 1)" stroke-width="1.5"></path><path d="M-106.15 555.35L40.93 649.31" stroke="rgba(229, 94, 233, 1)" stroke-width="1.5"></path><path d="M-106.15 555.35L108.71 561.13" stroke="rgba(229, 94, 233, 1)" stroke-width="1.5"></path><path d="M-106.15 555.35L96.31 407.13" stroke="rgba(229, 94, 233, 1)" stroke-width="1.5"></path><path d="M-77.22 695.09L-77.22 695.09" stroke="rgba(229, 94, 233, 1)" stroke-width="1.5"></path><path d="M-77.22 695.09L40.93 649.31" stroke="rgba(229, 94, 233, 1)" stroke-width="1.5"></path><path d="M-77.22 695.09L108.71 561.13" stroke="rgba(229, 94, 233, 1)" stroke-width="1.5"></path><path d="M-77.22 695.09L96.31 407.13" stroke="rgba(229, 94, 233, 1)" stroke-width="1.5"></path><path d="M-77.22 695.09L252.39 530.44" stroke="rgba(229, 94, 233, 1)" stroke-width="1.5"></path><path d="M96.31 407.13L96.31 407.13" stroke="rgba(229, 94, 233, 1)" stroke-width="1.5"></path><path d="M96.31 407.13L108.71 561.13" stroke="rgba(229, 94, 233, 1)" stroke-width="1.5"></path><path d="M96.31 407.13L250.41 379.63" stroke="rgba(229, 94, 233, 1)" stroke-width="1.5"></path><path d="M96.31 407.13L252.39 530.44" stroke="rgba(229, 94, 233, 1)" stroke-width="1.5"></path><path d="M96.31 407.13L40.93 649.31" stroke="rgba(229, 94, 233, 1)" stroke-width="1.5"></path><path d="M108.71 561.13L108.71 561.13" stroke="rgba(229, 94, 233, 1)" stroke-width="1.5"></path><path d="M108.71 561.13L40.93 649.31" stroke="rgba(229, 94, 233, 1)" stroke-width="1.5"></path><path d="M108.71 561.13L252.39 530.44" stroke="rgba(229, 94, 233, 1)" stroke-width="1.5"></path><path d="M40.93 649.31L40.93 649.31" stroke="rgba(229, 94, 233, 1)" stroke-width="1.5"></path><path d="M250.41 379.63L250.41 379.63" stroke="rgba(229, 94, 233, 1)" stroke-width="1.5"></path><path d="M250.41 379.63L252.39 530.44" stroke="rgba(229, 94, 233, 1)" stroke-width="1.5"></path><path d="M250.41 379.63L410.31 384.76" stroke="rgba(229, 94, 233, 1)" stroke-width="1.5"></path><path d="M250.41 379.63L374.76 517.36" stroke="rgba(229, 94, 233, 1)" stroke-width="1.5"></path><path d="M250.41 379.63L108.71 561.13" stroke="rgba(229, 94, 233, 1)" stroke-width="1.5"></path><path d="M252.39 530.44L252.39 530.44" stroke="rgba(229, 94, 233, 1)" stroke-width="1.5"></path><path d="M252.39 530.44L374.76 517.36" stroke="rgba(229, 94, 233, 1)" stroke-width="1.5"></path><path d="M410.31 384.76L410.31 384.76" stroke="rgba(229, 94, 233, 1)" stroke-width="1.5"></path><path d="M410.31 384.76L374.76 517.36" stroke="rgba(229, 94, 233, 1)" stroke-width="1.5"></path><path d="M410.31 384.76L549.08 339.75" stroke="rgba(229, 94, 233, 1)" stroke-width="1.5"></path><path d="M410.31 384.76L499.78 500.82" stroke="rgba(229, 94, 233, 1)" stroke-width="1.5"></path><path d="M410.31 384.76L252.39 530.44" stroke="rgba(229, 94, 233, 1)" stroke-width="1.5"></path><path d="M374.76 517.36L374.76 517.36" stroke="rgba(229, 94, 233, 1)" stroke-width="1.5"></path><path d="M374.76 517.36L499.78 500.82" stroke="rgba(229, 94, 233, 1)" stroke-width="1.5"></path><path d="M374.76 517.36L398.38 660.92" stroke="rgba(229, 94, 233, 1)" stroke-width="1.5"></path><path d="M398.38 660.92L398.38 660.92" stroke="rgba(229, 94, 233, 1)" stroke-width="1.5"></path><path d="M398.38 660.92L499.78 500.82" stroke="rgba(229, 94, 233, 1)" stroke-width="1.5"></path><path d="M398.38 660.92L252.39 530.44" stroke="rgba(229, 94, 233, 1)" stroke-width="1.5"></path><path d="M398.38 660.92L410.31 384.76" stroke="rgba(229, 94, 233, 1)" stroke-width="1.5"></path><path d="M549.08 339.75L549.08 339.75" stroke="rgba(229, 94, 233, 1)" stroke-width="1.5"></path><path d="M549.08 339.75L683.69 365.43" stroke="rgba(229, 94, 233, 1)" stroke-width="1.5"></path><path d="M549.08 339.75L655.24 236.59" stroke="rgba(229, 94, 233, 1)" stroke-width="1.5"></path><path d="M549.08 339.75L499.78 500.82" stroke="rgba(229, 94, 233, 1)" stroke-width="1.5"></path><path d="M499.78 500.82L499.78 500.82" stroke="rgba(229, 94, 233, 1)" stroke-width="1.5"></path><path d="M499.78 500.82L701.28 519.09" stroke="rgba(229, 94, 233, 1)" stroke-width="1.5"></path><path d="M499.78 500.82L683.69 365.43" stroke="rgba(229, 94, 233, 1)" stroke-width="1.5"></path><path d="M655.24 236.59L655.24 236.59" stroke="rgba(229, 94, 233, 1)" stroke-width="1.5"></path><path d="M655.24 236.59L683.69 365.43" stroke="rgba(229, 94, 233, 1)" stroke-width="1.5"></path><path d="M655.24 236.59L830.13 192.23" stroke="rgba(229, 94, 233, 1)" stroke-width="1.5"></path><path d="M655.24 236.59L852.7 396.98" stroke="rgba(229, 94, 233, 1)" stroke-width="1.5"></path><path d="M683.69 365.43L683.69 365.43" stroke="rgba(229, 94, 233, 1)" stroke-width="1.5"></path><path d="M683.69 365.43L701.28 519.09" stroke="rgba(229, 94, 233, 1)" stroke-width="1.5"></path><path d="M701.28 519.09L701.28 519.09" stroke="rgba(229, 94, 233, 1)" stroke-width="1.5"></path><path d="M701.28 519.09L788.91 542.79" stroke="rgba(229, 94, 233, 1)" stroke-width="1.5"></path><path d="M830.13 192.23L830.13 192.23" stroke="rgba(229, 94, 233, 1)" stroke-width="1.5"></path><path d="M830.13 192.23L946.53 221.68" stroke="rgba(229, 94, 233, 1)" stroke-width="1.5"></path><path d="M830.13 192.23L852.7 396.98" stroke="rgba(229, 94, 233, 1)" stroke-width="1.5"></path><path d="M830.13 192.23L999.8 70.84" stroke="rgba(229, 94, 233, 1)" stroke-width="1.5"></path><path d="M830.13 192.23L683.69 365.43" stroke="rgba(229, 94, 233, 1)" stroke-width="1.5"></path><path d="M852.7 396.98L852.7 396.98" stroke="rgba(229, 94, 233, 1)" stroke-width="1.5"></path><path d="M852.7 396.98L788.91 542.79" stroke="rgba(229, 94, 233, 1)" stroke-width="1.5"></path><path d="M852.7 396.98L1009.77 346.8" stroke="rgba(229, 94, 233, 1)" stroke-width="1.5"></path><path d="M852.7 396.98L683.69 365.43" stroke="rgba(229, 94, 233, 1)" stroke-width="1.5"></path><path d="M852.7 396.98L701.28 519.09" stroke="rgba(229, 94, 233, 1)" stroke-width="1.5"></path><path d="M852.7 396.98L946.53 221.68" stroke="rgba(229, 94, 233, 1)" stroke-width="1.5"></path><path d="M788.91 542.79L788.91 542.79" stroke="rgba(229, 94, 233, 1)" stroke-width="1.5"></path><path d="M788.91 542.79L861.66 685.44" stroke="rgba(229, 94, 233, 1)" stroke-width="1.5"></path><path d="M788.91 542.79L977.43 559.4" stroke="rgba(229, 94, 233, 1)" stroke-width="1.5"></path><path d="M788.91 542.79L683.69 365.43" stroke="rgba(229, 94, 233, 1)" stroke-width="1.5"></path><path d="M861.66 685.44L861.66 685.44" stroke="rgba(229, 94, 233, 1)" stroke-width="1.5"></path><path d="M861.66 685.44L954.53 683.03" stroke="rgba(229, 94, 233, 1)" stroke-width="1.5"></path><path d="M861.66 685.44L977.43 559.4" stroke="rgba(229, 94, 233, 1)" stroke-width="1.5"></path><path d="M861.66 685.44L701.28 519.09" stroke="rgba(229, 94, 233, 1)" stroke-width="1.5"></path><path d="M946.38 -69.33L946.38 -69.33" stroke="rgba(229, 94, 233, 1)" stroke-width="1.5"></path><path d="M946.38 -69.33L999.8 70.84" stroke="rgba(229, 94, 233, 1)" stroke-width="1.5"></path><path d="M946.38 -69.33L1121.73 -80.72" stroke="rgba(229, 94, 233, 1)" stroke-width="1.5"></path><path d="M946.38 -69.33L1158.31 66.38" stroke="rgba(229, 94, 233, 1)" stroke-width="1.5"></path><path d="M946.38 -69.33L830.13 192.23" stroke="rgba(229, 94, 233, 1)" stroke-width="1.5"></path><path d="M999.8 70.84L999.8 70.84" stroke="rgba(229, 94, 233, 1)" stroke-width="1.5"></path><path d="M999.8 70.84L1158.31 66.38" stroke="rgba(229, 94, 233, 1)" stroke-width="1.5"></path><path d="M946.53 221.68L946.53 221.68" stroke="rgba(229, 94, 233, 1)" stroke-width="1.5"></path><path d="M946.53 221.68L1009.77 346.8" stroke="rgba(229, 94, 233, 1)" stroke-width="1.5"></path><path d="M946.53 221.68L999.8 70.84" stroke="rgba(229, 94, 233, 1)" stroke-width="1.5"></path><path d="M1009.77 346.8L1009.77 346.8" stroke="rgba(229, 94, 233, 1)" stroke-width="1.5"></path><path d="M1009.77 346.8L1154.01 399.71" stroke="rgba(229, 94, 233, 1)" stroke-width="1.5"></path><path d="M977.43 559.4L977.43 559.4" stroke="rgba(229, 94, 233, 1)" stroke-width="1.5"></path><path d="M977.43 559.4L954.53 683.03" stroke="rgba(229, 94, 233, 1)" stroke-width="1.5"></path><path d="M977.43 559.4L1122.06 515.45" stroke="rgba(229, 94, 233, 1)" stroke-width="1.5"></path><path d="M954.53 683.03L954.53 683.03" stroke="rgba(229, 94, 233, 1)" stroke-width="1.5"></path><path d="M954.53 683.03L1106.64 703.93" stroke="rgba(229, 94, 233, 1)" stroke-width="1.5"></path><path d="M954.53 683.03L788.91 542.79" stroke="rgba(229, 94, 233, 1)" stroke-width="1.5"></path><path d="M1121.73 -80.72L1121.73 -80.72" stroke="rgba(229, 94, 233, 1)" stroke-width="1.5"></path><path d="M1121.73 -80.72L1158.31 66.38" stroke="rgba(229, 94, 233, 1)" stroke-width="1.5"></path><path d="M1121.73 -80.72L1291.99 -39.74" stroke="rgba(229, 94, 233, 1)" stroke-width="1.5"></path><path d="M1121.73 -80.72L1242.29 54.1" stroke="rgba(229, 94, 233, 1)" stroke-width="1.5"></path><path d="M1121.73 -80.72L999.8 70.84" stroke="rgba(229, 94, 233, 1)" stroke-width="1.5"></path><path d="M1158.31 66.38L1158.31 66.38" stroke="rgba(229, 94, 233, 1)" stroke-width="1.5"></path><path d="M1158.31 66.38L1242.29 54.1" stroke="rgba(229, 94, 233, 1)" stroke-width="1.5"></path><path d="M1154.01 399.71L1154.01 399.71" stroke="rgba(229, 94, 233, 1)" stroke-width="1.5"></path><path d="M1154.01 399.71L1122.06 515.45" stroke="rgba(229, 94, 233, 1)" stroke-width="1.5"></path><path d="M1154.01 399.71L1282.98 400.74" stroke="rgba(229, 94, 233, 1)" stroke-width="1.5"></path><path d="M1122.06 515.45L1122.06 515.45" stroke="rgba(229, 94, 233, 1)" stroke-width="1.5"></path><path d="M1106.64 703.93L1106.64 703.93" stroke="rgba(229, 94, 233, 1)" stroke-width="1.5"></path><path d="M1106.64 703.93L1122.06 515.45" stroke="rgba(229, 94, 233, 1)" stroke-width="1.5"></path><path d="M1106.64 703.93L1294.2 667.26" stroke="rgba(229, 94, 233, 1)" stroke-width="1.5"></path><path d="M1106.64 703.93L977.43 559.4" stroke="rgba(229, 94, 233, 1)" stroke-width="1.5"></path><path d="M1106.64 703.93L861.66 685.44" stroke="rgba(229, 94, 233, 1)" stroke-width="1.5"></path><path d="M1291.99 -39.74L1291.99 -39.74" stroke="rgba(229, 94, 233, 1)" stroke-width="1.5"></path><path d="M1291.99 -39.74L1242.29 54.1" stroke="rgba(229, 94, 233, 1)" stroke-width="1.5"></path><path d="M1291.99 -39.74L1456.6 -64.37" stroke="rgba(229, 94, 233, 1)" stroke-width="1.5"></path><path d="M1242.29 54.1L1242.29 54.1" stroke="rgba(229, 94, 233, 1)" stroke-width="1.5"></path><path d="M1242.29 54.1L1394.73 96.74" stroke="rgba(229, 94, 233, 1)" stroke-width="1.5"></path><path d="M1242.29 54.1L1277.38 247.96" stroke="rgba(229, 94, 233, 1)" stroke-width="1.5"></path><path d="M1277.38 247.96L1277.38 247.96" stroke="rgba(229, 94, 233, 1)" stroke-width="1.5"></path><path d="M1277.38 247.96L1393.15 200.39" stroke="rgba(229, 94, 233, 1)" stroke-width="1.5"></path><path d="M1277.38 247.96L1282.98 400.74" stroke="rgba(229, 94, 233, 1)" stroke-width="1.5"></path><path d="M1277.38 247.96L1394.73 96.74" stroke="rgba(229, 94, 233, 1)" stroke-width="1.5"></path><path d="M1277.38 247.96L1154.01 399.71" stroke="rgba(229, 94, 233, 1)" stroke-width="1.5"></path><path d="M1282.98 400.74L1282.98 400.74" stroke="rgba(229, 94, 233, 1)" stroke-width="1.5"></path><path d="M1282.98 400.74L1300.62 549.97" stroke="rgba(229, 94, 233, 1)" stroke-width="1.5"></path><path d="M1282.98 400.74L1442.96 511.81" stroke="rgba(229, 94, 233, 1)" stroke-width="1.5"></path><path d="M1300.62 549.97L1300.62 549.97" stroke="rgba(229, 94, 233, 1)" stroke-width="1.5"></path><path d="M1300.62 549.97L1294.2 667.26" stroke="rgba(229, 94, 233, 1)" stroke-width="1.5"></path><path d="M1294.2 667.26L1294.2 667.26" stroke="rgba(229, 94, 233, 1)" stroke-width="1.5"></path><path d="M1294.2 667.26L1426.37 650.19" stroke="rgba(229, 94, 233, 1)" stroke-width="1.5"></path><path d="M1456.6 -64.37L1456.6 -64.37" stroke="rgba(229, 94, 233, 1)" stroke-width="1.5"></path><path d="M1456.6 -64.37L1609.77 -53.62" stroke="rgba(229, 94, 233, 1)" stroke-width="1.5"></path><path d="M1456.6 -64.37L1556.5 64.37" stroke="rgba(229, 94, 233, 1)" stroke-width="1.5"></path><path d="M1394.73 96.74L1394.73 96.74" stroke="rgba(229, 94, 233, 1)" stroke-width="1.5"></path><path d="M1394.73 96.74L1393.15 200.39" stroke="rgba(229, 94, 233, 1)" stroke-width="1.5"></path><path d="M1394.73 96.74L1556.5 64.37" stroke="rgba(229, 94, 233, 1)" stroke-width="1.5"></path><path d="M1394.73 96.74L1291.99 -39.74" stroke="rgba(229, 94, 233, 1)" stroke-width="1.5"></path><path d="M1393.15 200.39L1393.15 200.39" stroke="rgba(229, 94, 233, 1)" stroke-width="1.5"></path><path d="M1442.96 511.81L1442.96 511.81" stroke="rgba(229, 94, 233, 1)" stroke-width="1.5"></path><path d="M1442.96 511.81L1565.89 509.24" stroke="rgba(229, 94, 233, 1)" stroke-width="1.5"></path><path d="M1442.96 511.81L1426.37 650.19" stroke="rgba(229, 94, 233, 1)" stroke-width="1.5"></path><path d="M1442.96 511.81L1300.62 549.97" stroke="rgba(229, 94, 233, 1)" stroke-width="1.5"></path><path d="M1426.37 650.19L1426.37 650.19" stroke="rgba(229, 94, 233, 1)" stroke-width="1.5"></path><path d="M1426.37 650.19L1543.63 640.01" stroke="rgba(229, 94, 233, 1)" stroke-width="1.5"></path><path d="M1426.37 650.19L1300.62 549.97" stroke="rgba(229, 94, 233, 1)" stroke-width="1.5"></path><path d="M1426.37 650.19L1565.89 509.24" stroke="rgba(229, 94, 233, 1)" stroke-width="1.5"></path><path d="M1426.37 650.19L1282.98 400.74" stroke="rgba(229, 94, 233, 1)" stroke-width="1.5"></path><path d="M1609.77 -53.62L1609.77 -53.62" stroke="rgba(229, 94, 233, 1)" stroke-width="1.5"></path><path d="M1609.77 -53.62L1556.5 64.37" stroke="rgba(229, 94, 233, 1)" stroke-width="1.5"></path><path d="M1556.5 64.37L1556.5 64.37" stroke="rgba(229, 94, 233, 1)" stroke-width="1.5"></path><path d="M1556.5 64.37L1577.62 231.27" stroke="rgba(229, 94, 233, 1)" stroke-width="1.5"></path><path d="M1556.5 64.37L1393.15 200.39" stroke="rgba(229, 94, 233, 1)" stroke-width="1.5"></path><path d="M1556.5 64.37L1291.99 -39.74" stroke="rgba(229, 94, 233, 1)" stroke-width="1.5"></path><path d="M1577.62 231.27L1577.62 231.27" stroke="rgba(229, 94, 233, 1)" stroke-width="1.5"></path><path d="M1577.62 231.27L1565.3 387.03" stroke="rgba(229, 94, 233, 1)" stroke-width="1.5"></path><path d="M1577.62 231.27L1393.15 200.39" stroke="rgba(229, 94, 233, 1)" stroke-width="1.5"></path><path d="M1577.62 231.27L1394.73 96.74" stroke="rgba(229, 94, 233, 1)" stroke-width="1.5"></path><path d="M1577.62 231.27L1565.89 509.24" stroke="rgba(229, 94, 233, 1)" stroke-width="1.5"></path><path d="M1577.62 231.27L1609.77 -53.62" stroke="rgba(229, 94, 233, 1)" stroke-width="1.5"></path><path d="M1565.3 387.03L1565.3 387.03" stroke="rgba(229, 94, 233, 1)" stroke-width="1.5"></path><path d="M1565.3 387.03L1565.89 509.24" stroke="rgba(229, 94, 233, 1)" stroke-width="1.5"></path><path d="M1565.89 509.24L1565.89 509.24" stroke="rgba(229, 94, 233, 1)" stroke-width="1.5"></path><path d="M1565.89 509.24L1543.63 640.01" stroke="rgba(229, 94, 233, 1)" stroke-width="1.5"></path><path d="M1543.63 640.01L1543.63 640.01" stroke="rgba(229, 94, 233, 1)" stroke-width="1.5"></path><path d="M1543.63 640.01L1442.96 511.81" stroke="rgba(229, 94, 233, 1)" stroke-width="1.5"></path><path d="M1543.63 640.01L1294.2 667.26" stroke="rgba(229, 94, 233, 1)" stroke-width="1.5"></path><circle r="5" cx="-68.87" cy="403.97" fill="rgba(229, 94, 233, 1)"></circle><circle r="5" cx="-106.15" cy="555.35" fill="rgba(229, 94, 233, 1)"></circle><circle r="5" cx="-77.22" cy="695.09" fill="rgba(229, 94, 233, 1)"></circle><circle r="5" cx="96.31" cy="407.13" fill="rgba(229, 94, 233, 1)"></circle><circle r="5" cx="108.71" cy="561.13" fill="rgba(229, 94, 233, 1)"></circle><circle r="5" cx="40.93" cy="649.31" fill="rgba(229, 94, 233, 1)"></circle><circle r="5" cx="250.41" cy="379.63" fill="rgba(229, 94, 233, 1)"></circle><circle r="5" cx="252.39" cy="530.44" fill="rgba(229, 94, 233, 1)"></circle><circle r="5" cx="410.31" cy="384.76" fill="rgba(229, 94, 233, 1)"></circle><circle r="5" cx="374.76" cy="517.36" fill="rgba(229, 94, 233, 1)"></circle><circle r="5" cx="398.38" cy="660.92" fill="rgba(229, 94, 233, 1)"></circle><circle r="5" cx="549.08" cy="339.75" fill="rgba(229, 94, 233, 1)"></circle><circle r="5" cx="499.78" cy="500.82" fill="rgba(229, 94, 233, 1)"></circle><circle r="5" cx="655.24" cy="236.59" fill="rgba(229, 94, 233, 1)"></circle><circle r="5" cx="683.69" cy="365.43" fill="rgba(229, 94, 233, 1)"></circle><circle r="5" cx="701.28" cy="519.09" fill="rgba(229, 94, 233, 1)"></circle><circle r="5" cx="830.13" cy="192.23" fill="rgba(229, 94, 233, 1)"></circle><circle r="5" cx="852.7" cy="396.98" fill="rgba(229, 94, 233, 1)"></circle><circle r="5" cx="788.91" cy="542.79" fill="rgba(229, 94, 233, 1)"></circle><circle r="5" cx="861.66" cy="685.44" fill="rgba(229, 94, 233, 1)"></circle><circle r="5" cx="946.38" cy="-69.33" fill="rgba(229, 94, 233, 1)"></circle><circle r="5" cx="999.8" cy="70.84" fill="rgba(229, 94, 233, 1)"></circle><circle r="5" cx="946.53" cy="221.68" fill="rgba(229, 94, 233, 1)"></circle><circle r="5" cx="1009.77" cy="346.8" fill="rgba(229, 94, 233, 1)"></circle><circle r="5" cx="977.43" cy="559.4" fill="rgba(229, 94, 233, 1)"></circle><circle r="5" cx="954.53" cy="683.03" fill="rgba(229, 94, 233, 1)"></circle><circle r="5" cx="1121.73" cy="-80.72" fill="rgba(229, 94, 233, 1)"></circle><circle r="5" cx="1158.31" cy="66.38" fill="rgba(229, 94, 233, 1)"></circle><circle r="5" cx="1154.01" cy="399.71" fill="rgba(229, 94, 233, 1)"></circle><circle r="5" cx="1122.06" cy="515.45" fill="rgba(229, 94, 233, 1)"></circle><circle r="5" cx="1106.64" cy="703.93" fill="rgba(229, 94, 233, 1)"></circle><circle r="5" cx="1291.99" cy="-39.74" fill="rgba(229, 94, 233, 1)"></circle><circle r="5" cx="1242.29" cy="54.1" fill="rgba(229, 94, 233, 1)"></circle><circle r="5" cx="1277.38" cy="247.96" fill="rgba(229, 94, 233, 1)"></circle><circle r="5" cx="1282.98" cy="400.74" fill="rgba(229, 94, 233, 1)"></circle><circle r="5" cx="1300.62" cy="549.97" fill="rgba(229, 94, 233, 1)"></circle><circle r="5" cx="1294.2" cy="667.26" fill="rgba(229, 94, 233, 1)"></circle><circle r="5" cx="1456.6" cy="-64.37" fill="rgba(229, 94, 233, 1)"></circle><circle r="5" cx="1394.73" cy="96.74" fill="rgba(229, 94, 233, 1)"></circle><circle r="5" cx="1393.15" cy="200.39" fill="rgba(229, 94, 233, 1)"></circle><circle r="5" cx="1442.96" cy="511.81" fill="rgba(229, 94, 233, 1)"></circle><circle r="5" cx="1426.37" cy="650.19" fill="rgba(229, 94, 233, 1)"></circle><circle r="5" cx="1609.77" cy="-53.62" fill="rgba(229, 94, 233, 1)"></circle><circle r="5" cx="1556.5" cy="64.37" fill="rgba(229, 94, 233, 1)"></circle><circle r="5" cx="1577.62" cy="231.27" fill="rgba(229, 94, 233, 1)"></circle><circle r="5" cx="1565.3" cy="387.03" fill="rgba(229, 94, 233, 1)"></circle><circle r="5" cx="1565.89" cy="509.24" fill="rgba(229, 94, 233, 1)"></circle><circle r="5" cx="1543.63" cy="640.01" fill="rgba(229, 94, 233, 1)"></circle><path d="M200.74 521.63L200.74 521.63" stroke="hsl(194, 76.8%, 72.9%)" stroke-width="1.5"></path><path d="M200.74 521.63L53.71 496.34" stroke="hsl(194, 76.8%, 72.9%)" stroke-width="1.5"></path><path d="M200.74 521.63L354.72 559.82" stroke="hsl(194, 76.8%, 72.9%)" stroke-width="1.5"></path><path d="M354.72 559.82L354.72 559.82" stroke="hsl(194, 76.8%, 72.9%)" stroke-width="1.5"></path><path d="M354.72 559.82L344.5 640.41" stroke="hsl(194, 76.8%, 72.9%)" stroke-width="1.5"></path><path d="M523.13 407.96L523.13 407.96" stroke="hsl(194, 76.8%, 72.9%)" stroke-width="1.5"></path><path d="M523.13 407.96L529.65 531.35" stroke="hsl(194, 76.8%, 72.9%)" stroke-width="1.5"></path><path d="M523.13 407.96L665.6 529.2" stroke="hsl(194, 76.8%, 72.9%)" stroke-width="1.5"></path><path d="M523.13 407.96L354.72 559.82" stroke="hsl(194, 76.8%, 72.9%)" stroke-width="1.5"></path><path d="M822.25 387L822.25 387" stroke="hsl(194, 76.8%, 72.9%)" stroke-width="1.5"></path><path d="M822.25 387L854.96 492.49" stroke="hsl(194, 76.8%, 72.9%)" stroke-width="1.5"></path><path d="M822.25 387L947.39 412.46" stroke="hsl(194, 76.8%, 72.9%)" stroke-width="1.5"></path><path d="M822.25 387L665.6 529.2" stroke="hsl(194, 76.8%, 72.9%)" stroke-width="1.5"></path><path d="M1281.05 89.05L1281.05 89.05" stroke="hsl(194, 76.8%, 72.9%)" stroke-width="1.5"></path><path d="M1281.05 89.05L1309.39 209.01" stroke="hsl(194, 76.8%, 72.9%)" stroke-width="1.5"></path><path d="M1281.05 89.05L1271.02 -83.61" stroke="hsl(194, 76.8%, 72.9%)" stroke-width="1.5"></path><path d="M1281.05 89.05L1451.34 37.59" stroke="hsl(194, 76.8%, 72.9%)" stroke-width="1.5"></path><path d="M1451.34 37.59L1451.34 37.59" stroke="hsl(194, 76.8%, 72.9%)" stroke-width="1.5"></path><path d="M1451.34 37.59L1593.25 56.65" stroke="hsl(194, 76.8%, 72.9%)" stroke-width="1.5"></path><path d="M1451.34 37.59L1442.93 -110.29" stroke="hsl(194, 76.8%, 72.9%)" stroke-width="1.5"></path><path d="M1451.34 37.59L1605.2 -80.29" stroke="hsl(194, 76.8%, 72.9%)" stroke-width="1.5"></path><path d="M1451.34 37.59L1271.02 -83.61" stroke="hsl(194, 76.8%, 72.9%)" stroke-width="1.5"></path><path d="M1547.9 239.33L1547.9 239.33" stroke="hsl(194, 76.8%, 72.9%)" stroke-width="1.5"></path><path d="M1547.9 239.33L1560.38 373.47" stroke="hsl(194, 76.8%, 72.9%)" stroke-width="1.5"></path><path d="M1547.9 239.33L1593.25 56.65" stroke="hsl(194, 76.8%, 72.9%)" stroke-width="1.5"></path><path d="M1564.51 671.16L1564.51 671.16" stroke="hsl(194, 76.8%, 72.9%)" stroke-width="1.5"></path><path d="M1564.51 671.16L1431.31 687.38" stroke="hsl(194, 76.8%, 72.9%)" stroke-width="1.5"></path><path d="M1564.51 671.16L1445.56 561.98" stroke="hsl(194, 76.8%, 72.9%)" stroke-width="1.5"></path><path d="M-75.31 515.06L-75.31 515.06" stroke="hsl(194, 76.8%, 72.9%)" stroke-width="1.5"></path><path d="M-75.31 515.06L53.71 496.34" stroke="hsl(194, 76.8%, 72.9%)" stroke-width="1.5"></path><path d="M-75.31 515.06L102.65 675.57" stroke="hsl(194, 76.8%, 72.9%)" stroke-width="1.5"></path><path d="M-75.31 515.06L200.74 521.63" stroke="hsl(194, 76.8%, 72.9%)" stroke-width="1.5"></path><path d="M-75.31 515.06L244.16 678.71" stroke="hsl(194, 76.8%, 72.9%)" stroke-width="1.5"></path><path d="M53.71 496.34L53.71 496.34" stroke="hsl(194, 76.8%, 72.9%)" stroke-width="1.5"></path><path d="M53.71 496.34L102.65 675.57" stroke="hsl(194, 76.8%, 72.9%)" stroke-width="1.5"></path><path d="M53.71 496.34L244.16 678.71" stroke="hsl(194, 76.8%, 72.9%)" stroke-width="1.5"></path><path d="M102.65 675.57L102.65 675.57" stroke="hsl(194, 76.8%, 72.9%)" stroke-width="1.5"></path><path d="M102.65 675.57L244.16 678.71" stroke="hsl(194, 76.8%, 72.9%)" stroke-width="1.5"></path><path d="M102.65 675.57L200.74 521.63" stroke="hsl(194, 76.8%, 72.9%)" stroke-width="1.5"></path><path d="M244.16 678.71L244.16 678.71" stroke="hsl(194, 76.8%, 72.9%)" stroke-width="1.5"></path><path d="M244.16 678.71L344.5 640.41" stroke="hsl(194, 76.8%, 72.9%)" stroke-width="1.5"></path><path d="M244.16 678.71L354.72 559.82" stroke="hsl(194, 76.8%, 72.9%)" stroke-width="1.5"></path><path d="M244.16 678.71L200.74 521.63" stroke="hsl(194, 76.8%, 72.9%)" stroke-width="1.5"></path><path d="M244.16 678.71L545.27 699.26" stroke="hsl(194, 76.8%, 72.9%)" stroke-width="1.5"></path><path d="M344.5 640.41L344.5 640.41" stroke="hsl(194, 76.8%, 72.9%)" stroke-width="1.5"></path><path d="M344.5 640.41L200.74 521.63" stroke="hsl(194, 76.8%, 72.9%)" stroke-width="1.5"></path><path d="M529.65 531.35L529.65 531.35" stroke="hsl(194, 76.8%, 72.9%)" stroke-width="1.5"></path><path d="M529.65 531.35L665.6 529.2" stroke="hsl(194, 76.8%, 72.9%)" stroke-width="1.5"></path><path d="M529.65 531.35L545.27 699.26" stroke="hsl(194, 76.8%, 72.9%)" stroke-width="1.5"></path><path d="M545.27 699.26L545.27 699.26" stroke="hsl(194, 76.8%, 72.9%)" stroke-width="1.5"></path><path d="M545.27 699.26L654.23 698.63" stroke="hsl(194, 76.8%, 72.9%)" stroke-width="1.5"></path><path d="M545.27 699.26L665.6 529.2" stroke="hsl(194, 76.8%, 72.9%)" stroke-width="1.5"></path><path d="M665.6 529.2L665.6 529.2" stroke="hsl(194, 76.8%, 72.9%)" stroke-width="1.5"></path><path d="M665.6 529.2L654.23 698.63" stroke="hsl(194, 76.8%, 72.9%)" stroke-width="1.5"></path><path d="M665.6 529.2L854.96 492.49" stroke="hsl(194, 76.8%, 72.9%)" stroke-width="1.5"></path><path d="M654.23 698.63L654.23 698.63" stroke="hsl(194, 76.8%, 72.9%)" stroke-width="1.5"></path><path d="M854.96 492.49L854.96 492.49" stroke="hsl(194, 76.8%, 72.9%)" stroke-width="1.5"></path><path d="M854.96 492.49L947.39 412.46" stroke="hsl(194, 76.8%, 72.9%)" stroke-width="1.5"></path><path d="M854.96 492.49L996.94 559.14" stroke="hsl(194, 76.8%, 72.9%)" stroke-width="1.5"></path><path d="M854.96 492.49L839.2 669.7" stroke="hsl(194, 76.8%, 72.9%)" stroke-width="1.5"></path><path d="M854.96 492.49L938.98 694.84" stroke="hsl(194, 76.8%, 72.9%)" stroke-width="1.5"></path><path d="M839.2 669.7L839.2 669.7" stroke="hsl(194, 76.8%, 72.9%)" stroke-width="1.5"></path><path d="M839.2 669.7L938.98 694.84" stroke="hsl(194, 76.8%, 72.9%)" stroke-width="1.5"></path><path d="M839.2 669.7L654.23 698.63" stroke="hsl(194, 76.8%, 72.9%)" stroke-width="1.5"></path><path d="M839.2 669.7L996.94 559.14" stroke="hsl(194, 76.8%, 72.9%)" stroke-width="1.5"></path><path d="M839.2 669.7L665.6 529.2" stroke="hsl(194, 76.8%, 72.9%)" stroke-width="1.5"></path><path d="M947.39 412.46L947.39 412.46" stroke="hsl(194, 76.8%, 72.9%)" stroke-width="1.5"></path><path d="M947.39 412.46L996.94 559.14" stroke="hsl(194, 76.8%, 72.9%)" stroke-width="1.5"></path><path d="M947.39 412.46L1093.84 513.55" stroke="hsl(194, 76.8%, 72.9%)" stroke-width="1.5"></path><path d="M996.94 559.14L996.94 559.14" stroke="hsl(194, 76.8%, 72.9%)" stroke-width="1.5"></path><path d="M996.94 559.14L1093.84 513.55" stroke="hsl(194, 76.8%, 72.9%)" stroke-width="1.5"></path><path d="M996.94 559.14L938.98 694.84" stroke="hsl(194, 76.8%, 72.9%)" stroke-width="1.5"></path><path d="M996.94 559.14L1116.06 702.14" stroke="hsl(194, 76.8%, 72.9%)" stroke-width="1.5"></path><path d="M938.98 694.84L938.98 694.84" stroke="hsl(194, 76.8%, 72.9%)" stroke-width="1.5"></path><path d="M938.98 694.84L1116.06 702.14" stroke="hsl(194, 76.8%, 72.9%)" stroke-width="1.5"></path><path d="M1123.42 228.34L1123.42 228.34" stroke="hsl(194, 76.8%, 72.9%)" stroke-width="1.5"></path><path d="M1123.42 228.34L1144.18 343.15" stroke="hsl(194, 76.8%, 72.9%)" stroke-width="1.5"></path><path d="M1123.42 228.34L1309.39 209.01" stroke="hsl(194, 76.8%, 72.9%)" stroke-width="1.5"></path><path d="M1123.42 228.34L1266.46 354.43" stroke="hsl(194, 76.8%, 72.9%)" stroke-width="1.5"></path><path d="M1144.18 343.15L1144.18 343.15" stroke="hsl(194, 76.8%, 72.9%)" stroke-width="1.5"></path><path d="M1144.18 343.15L1266.46 354.43" stroke="hsl(194, 76.8%, 72.9%)" stroke-width="1.5"></path><path d="M1144.18 343.15L1093.84 513.55" stroke="hsl(194, 76.8%, 72.9%)" stroke-width="1.5"></path><path d="M1144.18 343.15L947.39 412.46" stroke="hsl(194, 76.8%, 72.9%)" stroke-width="1.5"></path><path d="M1093.84 513.55L1093.84 513.55" stroke="hsl(194, 76.8%, 72.9%)" stroke-width="1.5"></path><path d="M1116.06 702.14L1116.06 702.14" stroke="hsl(194, 76.8%, 72.9%)" stroke-width="1.5"></path><path d="M1116.06 702.14L1281.66 653.31" stroke="hsl(194, 76.8%, 72.9%)" stroke-width="1.5"></path><path d="M1271.02 -83.61L1271.02 -83.61" stroke="hsl(194, 76.8%, 72.9%)" stroke-width="1.5"></path><path d="M1271.02 -83.61L1442.93 -110.29" stroke="hsl(194, 76.8%, 72.9%)" stroke-width="1.5"></path><path d="M1271.02 -83.61L1309.39 209.01" stroke="hsl(194, 76.8%, 72.9%)" stroke-width="1.5"></path><path d="M1271.02 -83.61L1605.2 -80.29" stroke="hsl(194, 76.8%, 72.9%)" stroke-width="1.5"></path><path d="M1309.39 209.01L1309.39 209.01" stroke="hsl(194, 76.8%, 72.9%)" stroke-width="1.5"></path><path d="M1309.39 209.01L1266.46 354.43" stroke="hsl(194, 76.8%, 72.9%)" stroke-width="1.5"></path><path d="M1309.39 209.01L1389.1 397.45" stroke="hsl(194, 76.8%, 72.9%)" stroke-width="1.5"></path><path d="M1266.46 354.43L1266.46 354.43" stroke="hsl(194, 76.8%, 72.9%)" stroke-width="1.5"></path><path d="M1266.46 354.43L1389.1 397.45" stroke="hsl(194, 76.8%, 72.9%)" stroke-width="1.5"></path><path d="M1285.29 518.09L1285.29 518.09" stroke="hsl(194, 76.8%, 72.9%)" stroke-width="1.5"></path><path d="M1285.29 518.09L1281.66 653.31" stroke="hsl(194, 76.8%, 72.9%)" stroke-width="1.5"></path><path d="M1285.29 518.09L1389.1 397.45" stroke="hsl(194, 76.8%, 72.9%)" stroke-width="1.5"></path><path d="M1285.29 518.09L1266.46 354.43" stroke="hsl(194, 76.8%, 72.9%)" stroke-width="1.5"></path><path d="M1285.29 518.09L1445.56 561.98" stroke="hsl(194, 76.8%, 72.9%)" stroke-width="1.5"></path><path d="M1285.29 518.09L1093.84 513.55" stroke="hsl(194, 76.8%, 72.9%)" stroke-width="1.5"></path><path d="M1281.66 653.31L1281.66 653.31" stroke="hsl(194, 76.8%, 72.9%)" stroke-width="1.5"></path><path d="M1281.66 653.31L1431.31 687.38" stroke="hsl(194, 76.8%, 72.9%)" stroke-width="1.5"></path><path d="M1442.93 -110.29L1442.93 -110.29" stroke="hsl(194, 76.8%, 72.9%)" stroke-width="1.5"></path><path d="M1442.93 -110.29L1605.2 -80.29" stroke="hsl(194, 76.8%, 72.9%)" stroke-width="1.5"></path><path d="M1389.1 397.45L1389.1 397.45" stroke="hsl(194, 76.8%, 72.9%)" stroke-width="1.5"></path><path d="M1445.56 561.98L1445.56 561.98" stroke="hsl(194, 76.8%, 72.9%)" stroke-width="1.5"></path><path d="M1445.56 561.98L1431.31 687.38" stroke="hsl(194, 76.8%, 72.9%)" stroke-width="1.5"></path><path d="M1431.31 687.38L1431.31 687.38" stroke="hsl(194, 76.8%, 72.9%)" stroke-width="1.5"></path><path d="M1431.31 687.38L1285.29 518.09" stroke="hsl(194, 76.8%, 72.9%)" stroke-width="1.5"></path><path d="M1605.2 -80.29L1605.2 -80.29" stroke="hsl(194, 76.8%, 72.9%)" stroke-width="1.5"></path><path d="M1605.2 -80.29L1593.25 56.65" stroke="hsl(194, 76.8%, 72.9%)" stroke-width="1.5"></path><path d="M1593.25 56.65L1593.25 56.65" stroke="hsl(194, 76.8%, 72.9%)" stroke-width="1.5"></path><path d="M1593.25 56.65L1442.93 -110.29" stroke="hsl(194, 76.8%, 72.9%)" stroke-width="1.5"></path><path d="M1560.38 373.47L1560.38 373.47" stroke="hsl(194, 76.8%, 72.9%)" stroke-width="1.5"></path><path d="M1560.38 373.47L1609.69 500.94" stroke="hsl(194, 76.8%, 72.9%)" stroke-width="1.5"></path><path d="M1560.38 373.47L1389.1 397.45" stroke="hsl(194, 76.8%, 72.9%)" stroke-width="1.5"></path><path d="M1560.38 373.47L1445.56 561.98" stroke="hsl(194, 76.8%, 72.9%)" stroke-width="1.5"></path><path d="M1560.38 373.47L1266.46 354.43" stroke="hsl(194, 76.8%, 72.9%)" stroke-width="1.5"></path><path d="M1560.38 373.47L1564.51 671.16" stroke="hsl(194, 76.8%, 72.9%)" stroke-width="1.5"></path><path d="M1609.69 500.94L1609.69 500.94" stroke="hsl(194, 76.8%, 72.9%)" stroke-width="1.5"></path><circle r="25" cx="200.74" cy="521.63" fill="url(#SvgjsRadialGradient1766)"></circle><circle r="25" cx="354.72" cy="559.82" fill="url(#SvgjsRadialGradient1766)"></circle><circle r="25" cx="523.13" cy="407.96" fill="url(#SvgjsRadialGradient1766)"></circle><circle r="25" cx="822.25" cy="387" fill="url(#SvgjsRadialGradient1766)"></circle><circle r="25" cx="1281.05" cy="89.05" fill="url(#SvgjsRadialGradient1766)"></circle><circle r="25" cx="1451.34" cy="37.59" fill="url(#SvgjsRadialGradient1766)"></circle><circle r="25" cx="1547.9" cy="239.33" fill="url(#SvgjsRadialGradient1766)"></circle><circle r="25" cx="1564.51" cy="671.16" fill="url(#SvgjsRadialGradient1766)"></circle><circle r="5" cx="-75.31" cy="515.06" fill="#9cdef2"></circle><circle r="5" cx="53.71" cy="496.34" fill="#9cdef2"></circle><circle r="5" cx="102.65" cy="675.57" fill="#9cdef2"></circle><circle r="5" cx="244.16" cy="678.71" fill="#9cdef2"></circle><circle r="5" cx="344.5" cy="640.41" fill="#9cdef2"></circle><circle r="5" cx="529.65" cy="531.35" fill="#9cdef2"></circle><circle r="5" cx="545.27" cy="699.26" fill="#9cdef2"></circle><circle r="5" cx="665.6" cy="529.2" fill="#9cdef2"></circle><circle r="5" cx="654.23" cy="698.63" fill="#9cdef2"></circle><circle r="5" cx="854.96" cy="492.49" fill="#9cdef2"></circle><circle r="5" cx="839.2" cy="669.7" fill="#9cdef2"></circle><circle r="5" cx="947.39" cy="412.46" fill="#9cdef2"></circle><circle r="5" cx="996.94" cy="559.14" fill="#9cdef2"></circle><circle r="5" cx="938.98" cy="694.84" fill="#9cdef2"></circle><circle r="5" cx="1123.42" cy="228.34" fill="#9cdef2"></circle><circle r="5" cx="1144.18" cy="343.15" fill="#9cdef2"></circle><circle r="5" cx="1093.84" cy="513.55" fill="#9cdef2"></circle><circle r="5" cx="1116.06" cy="702.14" fill="#9cdef2"></circle><circle r="5" cx="1271.02" cy="-83.61" fill="#9cdef2"></circle><circle r="5" cx="1309.39" cy="209.01" fill="#9cdef2"></circle><circle r="5" cx="1266.46" cy="354.43" fill="#9cdef2"></circle><circle r="5" cx="1285.29" cy="518.09" fill="#9cdef2"></circle><circle r="5" cx="1281.66" cy="653.31" fill="#9cdef2"></circle><circle r="5" cx="1442.93" cy="-110.29" fill="#9cdef2"></circle><circle r="5" cx="1389.1" cy="397.45" fill="#9cdef2"></circle><circle r="5" cx="1445.56" cy="561.98" fill="#9cdef2"></circle><circle r="5" cx="1431.31" cy="687.38" fill="#9cdef2"></circle><circle r="5" cx="1605.2" cy="-80.29" fill="#9cdef2"></circle><circle r="5" cx="1593.25" cy="56.65" fill="#9cdef2"></circle><circle r="5" cx="1560.38" cy="373.47" fill="#9cdef2"></circle><circle r="5" cx="1609.69" cy="500.94" fill="#9cdef2"></circle></g><defs><mask id="SvgjsMask1764"><rect width="1440" height="560" fill="#ffffff"></rect></mask><linearGradient x1="15.28%" y1="-39.29%" x2="84.72%" y2="139.29%" gradientUnits="userSpaceOnUse" id="SvgjsLinearGradient1765"><stop stop-color="#0e2a47" offset="0"></stop><stop stop-color="rgba(200, 8, 146, 0.53)" offset="1"></stop></linearGradient><radialGradient id="SvgjsRadialGradient1766"><stop stop-color="#ffffff" offset="0.1"></stop><stop stop-color="rgba(57, 189, 229, 1)" offset="0.2"></stop><stop stop-color="rgba(57, 189, 229, 0)" offset="1"></stop></radialGradient></defs></svg>