<svg xmlns="http://www.w3.org/2000/svg" version="1.1" xmlns:xlink="http://www.w3.org/1999/xlink" xmlns:svgjs="http://svgjs.com/svgjs" width="1440" height="560" preserveAspectRatio="none" viewBox="0 0 1440 560"><g mask="url(&quot;#SvgjsMask1241&quot;)" fill="none"><rect width="1440" height="560" x="0" y="0" fill="url(#SvgjsLinearGradient1242)"></rect><path d="M0 0L385.51 0L0 121.12z" fill="rgba(255, 255, 255, .1)"></path><path d="M0 121.12L385.51 0L716.46 0L0 352.57z" fill="rgba(255, 255, 255, .075)"></path><path d="M0 352.57L716.46 0L1015.8700000000001 0L0 370.45z" fill="rgba(255, 255, 255, .05)"></path><path d="M0 370.45L1015.8700000000001 0L1288.8500000000001 0L0 462.16999999999996z" fill="rgba(255, 255, 255, .025)"></path><path d="M1440 560L1408.35 560L1440 420.59000000000003z" fill="rgba(0, 0, 0, .1)"></path><path d="M1440 420.59000000000003L1408.35 560L842.2499999999999 560L1440 337.43000000000006z" fill="rgba(0, 0, 0, .075)"></path><path d="M1440 337.43L842.25 560L680.24 560L1440 211.8z" fill="rgba(0, 0, 0, .05)"></path><path d="M1440 211.8L680.24 560L449.6 560L1440 81.02000000000001z" fill="rgba(0, 0, 0, .025)"></path></g><defs><mask id="SvgjsMask1241"><rect width="1440" height="560" fill="#ffffff"></rect></mask><linearGradient x1="15.28%" y1="-39.29%" x2="84.72%" y2="139.29%" gradientUnits="userSpaceOnUse" id="SvgjsLinearGradient1242"><stop stop-color="#0e2a47" offset="0"></stop><stop stop-color="rgba(158, 0, 147, 0.29)" offset="1"></stop></linearGradient></defs></svg>