<svg xmlns="http://www.w3.org/2000/svg" version="1.1" xmlns:xlink="http://www.w3.org/1999/xlink" xmlns:svgjs="http://svgjs.com/svgjs" width="600" height="800" preserveAspectRatio="none" viewBox="0 0 600 800"><g mask="url(&quot;#SvgjsMask1401&quot;)" fill="none"><rect width="600" height="800" x="0" y="0" fill="url(#SvgjsLinearGradient1402)"></rect><path d="M0 0L289.15 0L0 263.37z" fill="rgba(255, 255, 255, .1)"></path><path d="M0 263.37L289.15 0L313.4 0L0 313.98z" fill="rgba(255, 255, 255, .075)"></path><path d="M0 313.98L313.4 0L443.15 0L0 314.57z" fill="rgba(255, 255, 255, .05)"></path><path d="M0 314.57L443.15 0L513.15 0L0 516.6800000000001z" fill="rgba(255, 255, 255, .025)"></path><path d="M600 800L378 800L600 675.75z" fill="rgba(0, 0, 0, .1)"></path><path d="M600 675.75L378 800L254.69 800L600 483.72z" fill="rgba(0, 0, 0, .075)"></path><path d="M600 483.72L254.69 800L166.92000000000002 800L600 459.42z" fill="rgba(0, 0, 0, .05)"></path><path d="M600 459.42L166.92000000000002 800L129.65 800L600 238.03000000000003z" fill="rgba(0, 0, 0, .025)"></path></g><defs><mask id="SvgjsMask1401"><rect width="600" height="800" fill="#ffffff"></rect></mask><linearGradient x1="-8.33%" y1="6.25%" x2="108.33%" y2="93.75%" gradientUnits="userSpaceOnUse" id="SvgjsLinearGradient1402"><stop stop-color="rgba(87, 9, 65, 1)" offset="1"></stop><stop stop-color="rgba(227, 92, 189, 0.25)" offset="1"></stop></linearGradient></defs></svg>