<svg xmlns="http://www.w3.org/2000/svg" version="1.1" xmlns:xlink="http://www.w3.org/1999/xlink" xmlns:svgjs="http://svgjs.com/svgjs" width="500" height="650" preserveAspectRatio="none" viewBox="0 0 500 650"><g mask="url(&quot;#SvgjsMask1077&quot;)" fill="none"><rect width="500" height="650" x="0" y="0" fill="rgba(190, 62, 241, 1)"></rect><path d="M0,170.52C34.68,172.646,68.884,170.125,101.308,157.638C139.533,142.917,179.263,126.196,202.568,92.51C227.705,56.176,240.707,10.02,233.605,-33.587C226.551,-76.899,198.915,-115.389,164.313,-142.378C132.78,-166.973,91.355,-171.669,51.556,-175.582C17.612,-178.92,-14.033,-166.997,-47.934,-163.247C-90.729,-158.513,-141.007,-178.481,-173.857,-150.648C-206.354,-123.114,-205.839,-72.168,-205.7,-29.575C-205.574,9.012,-193.897,46.547,-173.109,79.056C-154.099,108.785,-124.829,129.204,-93.629,145.689C-64.49,161.085,-32.894,168.504,0,170.52" fill="#a210dc"></path><path d="M500 907.375C547.338 907.982 579.514 860.908 616.769 831.697 650.404 805.3240000000001 683.562 780.186 707.431 744.73 734.907 703.915 773.242 660.397 764.707 611.941 756.1669999999999 563.454 697.64 543.888 665.489 506.603 633.232 469.195 621.506 410.783 575.576 392.61 529.232 374.273 473.894 388.965 430.60699999999997 413.669 391.149 436.188 380.435 486.28200000000004 350.922 520.823 321.698 555.026 268.08299999999997 571.333 258.363 615.258 248.622 659.279 279.341 701.493 302.363 740.258 323.411 775.699 353.66499999999996 802.11 385.141 828.725 421.307 859.306 452.642 906.767 500 907.375" fill="#d37cf6"></path></g><defs><mask id="SvgjsMask1077"><rect width="500" height="650" fill="#ffffff"></rect></mask></defs></svg>