<svg xmlns="http://www.w3.org/2000/svg" version="1.1" xmlns:xlink="http://www.w3.org/1999/xlink" xmlns:svgjs="http://svgjs.com/svgjs" width="1106" height="500" preserveAspectRatio="none" viewBox="0 0 1106 500"><g mask="url(&quot;#SvgjsMask2355&quot;)" fill="none"><rect width="1106" height="500" x="0" y="0" fill="url(#SvgjsRadialGradient2356)"></rect><g transform="translate(-320.74, 10)" stroke-linecap="round" stroke="url(#SvgjsLinearGradient2357)"><path d="M112 223.66 L112 276.33" stroke-width="15.75"></path><path d="M133 67.91 L133 432.09" stroke-width="15.75"></path><path d="M154 144.69 L154 355.31" stroke-width="15.75"></path><path d="M175 79.2 L175 420.8" stroke-width="15.75"></path><path d="M196 78.23 L196 421.77" stroke-width="15.75"></path><path d="M217 204.16 L217 295.84" stroke-width="15.75"></path><path d="M238 188.49 L238 311.51" stroke-width="15.75"></path><path d="M259 163.44 L259 336.56" stroke-width="15.75"></path><path d="M280 117.91 L280 382.1" stroke-width="15.75"></path><path d="M301 147.64 L301 352.36" stroke-width="15.75"></path><path d="M322 130.53 L322 369.47" stroke-width="15.75"></path><path d="M343 115.38 L343 384.63" stroke-width="15.75"></path><path d="M364 226.88 L364 273.12" stroke-width="15.75"></path><path d="M385 218.43 L385 281.57" stroke-width="15.75"></path><path d="M406 161.64 L406 338.36" stroke-width="15.75"></path><path d="M427 91.59 L427 408.41" stroke-width="15.75"></path><path d="M448 112.49 L448 387.51" stroke-width="15.75"></path><path d="M469 155.62 L469 344.38" stroke-width="15.75"></path><path d="M490 130.89 L490 369.11" stroke-width="15.75"></path><path d="M511 154.57 L511 345.43" stroke-width="15.75"></path><path d="M532 197.5 L532 302.5" stroke-width="15.75"></path><path d="M553 205.46 L553 294.54" stroke-width="15.75"></path><path d="M574 113.32 L574 386.68" stroke-width="15.75"></path><path d="M595 182.71 L595 317.29" stroke-width="15.75"></path><path d="M616 82.1 L616 417.89" stroke-width="15.75"></path><path d="M637 131.42 L637 368.58" stroke-width="15.75"></path><path d="M658 172.39 L658 327.61" stroke-width="15.75"></path><path d="M679 225.81 L679 274.19" stroke-width="15.75"></path><path d="M700 225.37 L700 274.63" stroke-width="15.75"></path><path d="M721 212.2 L721 287.8" stroke-width="15.75"></path><path d="M742 208.37 L742 291.63" stroke-width="15.75"></path><path d="M763 101.39 L763 398.61" stroke-width="15.75"></path><path d="M784 148.19 L784 351.81" stroke-width="15.75"></path><path d="M805 205.64 L805 294.36" stroke-width="15.75"></path><path d="M826 193.49 L826 306.51" stroke-width="15.75"></path><path d="M847 56.53 L847 443.47" stroke-width="15.75"></path><path d="M868 65.85 L868 434.14" stroke-width="15.75"></path><path d="M889 182.53 L889 317.47" stroke-width="15.75"></path><path d="M910 85.17 L910 414.83" stroke-width="15.75"></path><path d="M931 219.37 L931 280.63" stroke-width="15.75"></path><path d="M952 72.91 L952 427.09" stroke-width="15.75"></path><path d="M973 110.6 L973 389.39" stroke-width="15.75"></path><path d="M994 217.63 L994 282.37" stroke-width="15.75"></path></g></g><defs><mask id="SvgjsMask2355"><rect width="1106" height="500" fill="#ffffff"></rect></mask><radialGradient cx="50%" cy="50%" r="606.88" gradientUnits="userSpaceOnUse" id="SvgjsRadialGradient2356"><stop stop-color="#0e2a47" offset="0"></stop><stop stop-color="rgba(255, 27, 254, 0.24)" offset="1"></stop></radialGradient><linearGradient x1="553" y1="45" x2="553" y2="455" gradientUnits="userSpaceOnUse" id="SvgjsLinearGradient2357"><stop stop-color="#3a7cc3" offset="0"></stop><stop stop-color="rgba(200, 17, 221, 1)" offset="0.46"></stop><stop stop-color="rgba(200, 17, 221, 1)" offset="1"></stop></linearGradient></defs></svg>